<svg width="23" height="28" viewBox="0 0 23 28" fill="none" xmlns="http://www.w3.org/2000/svg">
<path fill-rule="evenodd" clip-rule="evenodd" d="M22.0469 0H3.98438C2.92802 0.00119517 1.91527 0.42136 1.16832 1.16832C0.42136 1.91527 0.00119517 2.92802 0 3.98438V26.2969C0 26.5082 0.0839561 26.7109 0.233399 26.8604C0.382842 27.0098 0.585531 27.0938 0.796875 27.0938H19.9219C20.1332 27.0938 20.3359 27.0098 20.4854 26.8604C20.6348 26.7109 20.7188 26.5082 20.7188 26.2969C20.7188 26.0855 20.6348 25.8828 20.4854 25.7334C20.3359 25.584 20.1332 25.5 19.9219 25.5H1.59375V25.2344C1.59445 24.6006 1.84655 23.9929 2.29472 23.5447C2.7429 23.0965 3.35056 22.8445 3.98438 22.8438H22.0469C22.2582 22.8438 22.4609 22.7598 22.6104 22.6104C22.7598 22.4609 22.8438 22.2582 22.8438 22.0469V0.796875C22.8438 0.585531 22.7598 0.382842 22.6104 0.233399C22.4609 0.0839561 22.2582 0 22.0469 0ZM16.5948 11.5433C17.125 10.9939 17.4219 10.2512 17.4219 9.47798C17.4219 8.70476 17.125 7.9621 16.5948 7.41266C16.0609 6.8591 15.334 6.54688 14.5745 6.54688C13.8151 6.54688 13.0881 6.85913 12.5543 7.41274L12.4218 7.55008L12.2892 7.41266C11.1758 6.2586 9.36209 6.2586 8.24875 7.41266C7.14625 8.55549 7.14625 10.4005 8.24875 11.5433L11.8963 15.3242C12.174 15.6121 12.6343 15.6221 12.9245 15.3467C13.7704 14.5321 14.5796 13.6729 15.3875 12.815C15.7888 12.3889 16.1897 11.9631 16.5948 11.5433Z" fill="white"/>
</svg>
