<svg width="46" height="46" viewBox="0 0 46 46" fill="none" xmlns="http://www.w3.org/2000/svg">
<path d="M21.1518 0.551185C16.6724 1.00524 12.6033 2.6643 9.13676 5.4585C7.79205 6.53252 7.59995 6.87306 8.05401 7.31839C8.40328 7.67639 8.61285 7.60654 9.56462 6.81194C13.6773 3.35412 18.7156 1.59901 23.946 1.79984C25.6225 1.8697 26.7751 2.0356 28.3556 2.41981C31.5602 3.21441 34.7561 4.90839 37.1573 7.07389L37.6201 7.49302L32.7477 12.3567C28.7922 16.3122 27.8317 17.2291 27.6396 17.2291C27.2729 17.2291 25.9107 17.6569 25.378 17.9363C25.1073 18.0848 24.662 18.3991 24.3913 18.6436L23.9023 19.0802V18.1808V17.2902L24.5048 16.6615C25.6924 15.4041 26.2949 14.3999 26.618 13.1251C27.1244 11.1429 26.2076 8.91632 24.1119 7.03023C23.2737 6.27056 23.1165 6.27929 22.2171 7.10009C20.9422 8.27889 20.0167 9.75458 19.746 11.0469C19.3618 12.8282 20.0778 14.7317 21.8067 16.5654L22.5053 17.2989V18.1896V19.0802L22.0163 18.6349C20.9073 17.6569 19.3792 17.133 17.5281 17.1155C15.5285 17.0893 15.4848 17.1243 15.4848 18.8794C15.4936 21.9792 16.6025 23.9875 18.8117 24.9131C19.1522 25.0528 19.4928 25.1751 19.5713 25.1751C19.8333 25.1751 19.7809 25.3322 19.3967 25.7077L19.0125 26.0919H17.4757H15.9389L15.7381 26.3277C15.5721 26.5198 15.5285 26.7031 15.4848 27.3318C15.4499 27.751 15.4674 28.4146 15.511 28.7988L15.5983 29.4973L11.7389 33.3656L7.87937 37.2338L7.46024 36.771C5.3122 34.3959 3.61822 31.2001 2.81488 28.0129C2.33463 26.1006 2.21238 25.0266 2.21238 22.8175C2.21238 20.5908 2.33463 19.5081 2.81488 17.6133C3.46977 15.0374 4.56126 12.7147 6.16792 10.4706C6.91886 9.41403 6.96252 9.16081 6.42115 8.88139C6.03694 8.68056 5.79245 8.78534 5.36459 9.35291C3.0943 12.2956 1.54876 16.0852 1.01612 20.0233C0.867677 21.1235 0.858945 24.5376 1.01612 25.6117C1.93296 32.2741 5.4781 37.9149 11.0228 41.556C18.3576 46.376 28.1024 46.3586 35.4459 41.5211C46.5004 34.23 48.8842 19.0715 40.6064 8.8028C37.0351 4.37574 32.0928 1.55535 26.3473 0.682163C25.2558 0.516258 22.2608 0.446403 21.1518 0.551185ZM23.9635 8.75914C25.7011 10.7762 25.9019 12.4877 24.6096 14.4523C23.8936 15.5525 23.9023 15.57 23.9023 13.7712C23.9023 11.7542 23.7888 11.3874 23.2038 11.3874C22.6188 11.3874 22.5053 11.7542 22.5053 13.7712C22.5053 15.57 22.514 15.5525 21.798 14.4523C20.7676 12.8893 20.689 11.5795 21.5098 10.0689C21.9639 9.2394 23.0554 7.93835 23.2387 7.99947C23.2911 8.01693 23.6142 8.35748 23.9635 8.75914ZM39.969 10.1126C41.663 12.3217 42.964 15.0548 43.6276 17.753C44.0817 19.6478 44.1952 20.6432 44.1952 22.8175C44.1952 25.0266 44.073 26.1006 43.5927 28.0129C41.7328 35.4001 35.7864 41.3465 28.3993 43.2064C26.487 43.6866 25.413 43.8089 23.2038 43.8089C21.0208 43.8089 20.0167 43.6954 18.1393 43.2326C14.9696 42.4554 11.9746 40.9099 9.46857 38.7444L8.77875 38.1594L12.3501 34.588C14.306 32.6321 15.9302 31.0254 15.9563 31.0254C15.9825 31.0254 16.131 31.2786 16.2882 31.5843C17.1788 33.2957 19.3705 34.4308 21.8242 34.4308H22.4965L22.5227 36.6051C22.5489 38.5959 22.5664 38.7968 22.7148 38.9627C22.9418 39.2159 23.4658 39.2159 23.6928 38.9627C23.8412 38.7968 23.8587 38.5959 23.8849 36.6138L23.9111 34.457L24.9764 34.4046C26.1814 34.3523 27.2554 34.0816 28.1373 33.6188C28.766 33.287 29.7178 32.3876 29.8051 32.047C29.8924 31.6803 29.613 31.3398 29.2026 31.3048C28.9144 31.2786 28.8359 31.3223 28.4691 31.724C27.9452 32.2915 26.9323 32.798 25.9369 32.9988C24.6882 33.2346 24.6882 33.2084 25.8845 32.0907C27.072 30.9818 27.2205 30.746 27.0109 30.3443C26.8625 30.0649 26.714 29.9776 26.3735 29.9776C26.1988 29.9776 25.8758 30.2395 25.02 31.0865L23.9023 32.1955V31.8637C23.9023 31.3747 24.1556 30.3443 24.4263 29.7418C25.0899 28.2836 26.6616 27.4453 28.8184 27.4104L29.6217 27.4017V28.0566C29.6217 28.4146 29.6567 28.7988 29.6916 28.8948C29.7789 29.1481 30.1806 29.314 30.46 29.2005C30.8878 29.0433 30.9315 28.8948 30.9228 27.7335C30.914 26.0919 30.7831 25.9959 28.7049 26.0832C26.8537 26.153 25.4392 26.6507 24.4263 27.5938L23.9023 28.074V26.8167V25.5505L24.8541 25.4894C27.1069 25.3497 28.6787 24.6424 29.6916 23.3239C30.5648 22.1626 31.0712 20.1193 30.9228 18.2856C30.8529 17.4386 30.7394 17.264 30.1806 17.1767L29.8226 17.1155L34.171 12.7583L38.5282 8.40114L38.9474 8.86393C39.1744 9.11715 39.6372 9.67599 39.969 10.1126ZM18.7593 18.5388C20.0516 18.7746 21.0645 19.3509 21.6408 20.1717C22.025 20.7305 22.3917 21.7958 22.4703 22.6079L22.5314 23.2104L21.3963 22.0927C20.3659 21.0885 20.235 20.9838 19.9468 20.9838C19.6063 20.9838 19.2745 21.2981 19.2745 21.6212C19.2745 21.7347 19.7023 22.2324 20.4096 22.9484C21.0383 23.5771 21.5447 24.1098 21.5447 24.136C21.5447 24.2146 20.4096 24.0486 19.8944 23.9002C17.921 23.3239 16.9692 21.9355 16.7859 19.3422L16.716 18.4515H17.5019C17.9385 18.4515 18.5061 18.4864 18.7593 18.5388ZM29.6305 19.2636C29.4296 21.9443 28.504 23.3326 26.5132 23.9002C25.998 24.0486 24.8629 24.2146 24.8629 24.136C24.8629 24.1098 25.378 23.5771 25.998 22.9484C26.7053 22.2324 27.1331 21.7347 27.1331 21.6212C27.1331 21.2981 26.8013 20.9838 26.4608 20.9838C26.1726 20.9838 26.0417 21.0885 25.0113 22.0927L23.8762 23.2104L23.9373 22.6166C24.1206 20.7218 25.0462 19.3946 26.5656 18.8445C27.3951 18.5388 27.8142 18.469 28.8271 18.4603L29.6916 18.4515L29.6305 19.2636ZM22.5053 26.7992V28.074L21.9988 27.6113C21.7194 27.3493 21.2479 27.0088 20.9422 26.8428L20.3921 26.5547L20.8986 26.0395L21.405 25.5243H21.9551H22.5053V26.7992ZM19.2221 27.62C21.0121 28.074 21.9813 29.1131 22.3655 30.9643C22.4441 31.331 22.5053 31.7589 22.5053 31.9161C22.5053 32.1868 22.4791 32.1693 21.3876 31.0865C20.462 30.1697 20.2175 29.9776 20.0079 29.9776C19.5015 29.9776 19.1609 30.4578 19.3705 30.877C19.4229 30.9818 19.9381 31.5319 20.5231 32.0994L21.5884 33.1298L21.0645 33.0774C18.7593 32.8504 17.4233 31.7327 16.978 29.672C16.8121 28.9123 16.6986 27.5851 16.7859 27.4366C16.8819 27.2882 18.3576 27.393 19.2221 27.62Z" fill="white"/>
</svg>
