<svg width="46" height="46" viewBox="0 0 46 46" fill="none" xmlns="http://www.w3.org/2000/svg">
<path d="M21.1518 0.551307C16.6724 1.00536 12.6033 2.66442 9.13676 5.45862C7.79205 6.53264 7.59995 6.87318 8.05401 7.31851C8.40328 7.67651 8.61285 7.60666 9.56462 6.81206C13.6773 3.35424 18.7156 1.59913 23.946 1.79996C25.6225 1.86982 26.7751 2.03573 28.3556 2.41993C31.5602 3.21453 34.7561 4.90851 37.1573 7.07401L37.6201 7.49314L32.7477 12.3568C28.7922 16.3123 27.8317 17.2292 27.6396 17.2292C27.2729 17.2292 25.9107 17.657 25.378 17.9365C25.1073 18.0849 24.662 18.3993 24.3913 18.6437L23.9023 19.0803V18.181V17.2903L24.5048 16.6616C25.6924 15.4042 26.2949 14.4001 26.618 13.1252C27.1244 11.1431 26.2076 8.91644 24.1119 7.03036C23.2737 6.27068 23.1165 6.27941 22.2171 7.10021C20.9422 8.27901 20.0167 9.7547 19.746 11.047C19.3618 12.8283 20.0778 14.7319 21.8067 16.5656L22.5053 17.299V18.1897V19.0803L22.0163 18.635C20.9073 17.657 19.3792 17.1331 17.5281 17.1157C15.5285 17.0895 15.4848 17.1244 15.4848 18.8795C15.4936 21.9793 16.6025 23.9876 18.8117 24.9132C19.1522 25.0529 19.4928 25.1752 19.5713 25.1752C19.8333 25.1752 19.7809 25.3324 19.3967 25.7078L19.0125 26.092H17.4757H15.9389L15.7381 26.3278C15.5721 26.5199 15.5285 26.7033 15.4848 27.332C15.4499 27.7511 15.4674 28.4147 15.511 28.7989L15.5983 29.4975L11.7389 33.3657L7.87937 37.2339L7.46024 36.7711C5.3122 34.396 3.61822 31.2002 2.81488 28.013C2.33463 26.1008 2.21238 25.0267 2.21238 22.8176C2.21238 20.591 2.33463 19.5082 2.81488 17.6134C3.46977 15.0375 4.56126 12.7148 6.16792 10.4707C6.91886 9.41416 6.96252 9.16093 6.42115 8.88151C6.03694 8.68068 5.79245 8.78546 5.36459 9.35303C3.0943 12.2957 1.54876 16.0853 1.01612 20.0234C0.867677 21.1236 0.858945 24.5378 1.01612 25.6118C1.93296 32.2742 5.4781 37.915 11.0228 41.5562C18.3576 46.3762 28.1024 46.3587 35.4459 41.5212C46.5004 34.2301 48.8842 19.0716 40.6064 8.80293C37.0351 4.37587 32.0928 1.55547 26.3473 0.682285C25.2558 0.51638 22.2608 0.446525 21.1518 0.551307ZM23.9635 8.75927C25.7011 10.7763 25.9019 12.4878 24.6096 14.4524C23.8936 15.5527 23.9023 15.5701 23.9023 13.7714C23.9023 11.7543 23.7888 11.3876 23.2038 11.3876C22.6188 11.3876 22.5053 11.7543 22.5053 13.7714C22.5053 15.5701 22.514 15.5527 21.798 14.4524C20.7676 12.8894 20.689 11.5797 21.5098 10.069C21.9639 9.23952 23.0554 7.93847 23.2387 7.99959C23.2911 8.01706 23.6142 8.3576 23.9635 8.75927ZM39.969 10.1127C41.663 12.3219 42.964 15.0549 43.6276 17.7531C44.0817 19.6479 44.1952 20.6433 44.1952 22.8176C44.1952 25.0267 44.073 26.1008 43.5927 28.013C41.7328 35.4002 35.7864 41.3466 28.3993 43.2065C26.487 43.6867 25.413 43.809 23.2038 43.809C21.0208 43.809 20.0167 43.6955 18.1393 43.2327C14.9696 42.4556 11.9746 40.91 9.46857 38.7445L8.77875 38.1595L12.3501 34.5881C14.306 32.6322 15.9302 31.0255 15.9563 31.0255C15.9825 31.0255 16.131 31.2788 16.2882 31.5844C17.1788 33.2958 19.3705 34.431 21.8242 34.431H22.4965L22.5227 36.6052C22.5489 38.5961 22.5664 38.7969 22.7148 38.9628C22.9418 39.216 23.4658 39.216 23.6928 38.9628C23.8412 38.7969 23.8587 38.5961 23.8849 36.6139L23.9111 34.4572L24.9764 34.4048C26.1814 34.3524 27.2554 34.0817 28.1373 33.6189C28.766 33.2871 29.7178 32.3877 29.8051 32.0472C29.8924 31.6804 29.613 31.3399 29.2026 31.305C28.9144 31.2788 28.8359 31.3224 28.4691 31.7241C27.9452 32.2917 26.9323 32.7981 25.9369 32.9989C24.6882 33.2347 24.6882 33.2085 25.8845 32.0908C27.072 30.9819 27.2205 30.7461 27.0109 30.3444C26.8625 30.065 26.714 29.9777 26.3735 29.9777C26.1988 29.9777 25.8758 30.2397 25.02 31.0867L23.9023 32.1956V31.8638C23.9023 31.3748 24.1556 30.3444 24.4263 29.742C25.0899 28.2837 26.6616 27.4455 28.8184 27.4105L29.6217 27.4018V28.0567C29.6217 28.4147 29.6567 28.7989 29.6916 28.895C29.7789 29.1482 30.1806 29.3141 30.46 29.2006C30.8878 29.0434 30.9315 28.895 30.9228 27.7336C30.914 26.092 30.7831 25.996 28.7049 26.0833C26.8537 26.1532 25.4392 26.6509 24.4263 27.5939L23.9023 28.0742V26.8168V25.5507L24.8541 25.4895C27.1069 25.3498 28.6787 24.6425 29.6916 23.324C30.5648 22.1627 31.0712 20.1194 30.9228 18.2857C30.8529 17.4387 30.7394 17.2641 30.1806 17.1768L29.8226 17.1157L34.171 12.7585L38.5282 8.40126L38.9474 8.86405C39.1744 9.11727 39.6372 9.67611 39.969 10.1127ZM18.7593 18.539C20.0516 18.7747 21.0645 19.351 21.6408 20.1718C22.025 20.7307 22.3917 21.7959 22.4703 22.608L22.5314 23.2105L21.3963 22.0928C20.3659 21.0887 20.235 20.9839 19.9468 20.9839C19.6063 20.9839 19.2745 21.2982 19.2745 21.6213C19.2745 21.7348 19.7023 22.2325 20.4096 22.9486C21.0383 23.5773 21.5447 24.1099 21.5447 24.1361C21.5447 24.2147 20.4096 24.0488 19.8944 23.9003C17.921 23.324 16.9692 21.9357 16.7859 19.3423L16.716 18.4516H17.5019C17.9385 18.4516 18.5061 18.4866 18.7593 18.539ZM29.6305 19.2637C29.4296 21.9444 28.504 23.3328 26.5132 23.9003C25.998 24.0488 24.8629 24.2147 24.8629 24.1361C24.8629 24.1099 25.378 23.5773 25.998 22.9486C26.7053 22.2325 27.1331 21.7348 27.1331 21.6213C27.1331 21.2982 26.8013 20.9839 26.4608 20.9839C26.1726 20.9839 26.0417 21.0887 25.0113 22.0928L23.8762 23.2105L23.9373 22.6167C24.1206 20.7219 25.0462 19.3947 26.5656 18.8446C27.3951 18.539 27.8142 18.4691 28.8271 18.4604L29.6916 18.4516L29.6305 19.2637ZM22.5053 26.7993V28.0742L21.9988 27.6114C21.7194 27.3494 21.2479 27.0089 20.9422 26.843L20.3921 26.5548L20.8986 26.0396L21.405 25.5245H21.9551H22.5053V26.7993ZM19.2221 27.6201C21.0121 28.0742 21.9813 29.1133 22.3655 30.9644C22.4441 31.3312 22.5053 31.759 22.5053 31.9162C22.5053 32.1869 22.4791 32.1694 21.3876 31.0867C20.462 30.1698 20.2175 29.9777 20.0079 29.9777C19.5015 29.9777 19.1609 30.458 19.3705 30.8771C19.4229 30.9819 19.9381 31.532 20.5231 32.0996L21.5884 33.1299L21.0645 33.0775C18.7593 32.8505 17.4233 31.7328 16.978 29.6721C16.8121 28.9124 16.6986 27.5852 16.7859 27.4367C16.8819 27.2883 18.3576 27.3931 19.2221 27.6201Z" fill="#89B5AF"/>
</svg>
