<svg width="49" height="49" viewBox="0 0 49 49" fill="none" xmlns="http://www.w3.org/2000/svg">
<g filter="url(#filter0_d_679_860)">
<circle cx="24.5" cy="20.5" r="12.5" fill="white"/>
</g>
<path d="M31.186 18.5744C31.186 19.5235 30.8062 20.435 30.128 21.1093C28.567 22.6621 27.0529 24.2811 25.4336 25.7776C25.0623 26.1156 24.4735 26.1033 24.1183 25.75L19.4529 21.1093C18.0427 19.7066 18.0427 17.4421 19.4529 16.0394C20.8769 14.6229 23.1969 14.6229 24.6209 16.0394L24.7905 16.2081L24.9599 16.0395C25.6427 15.36 26.5726 14.9767 27.544 14.9767C28.5154 14.9767 29.4452 15.36 30.128 16.0394C30.8063 16.7138 31.186 17.6253 31.186 18.5744Z" stroke="#5DAFA5" stroke-linejoin="round"/>
<defs>
<filter id="filter0_d_679_860" x="0" y="0" width="49" height="49" filterUnits="userSpaceOnUse" color-interpolation-filters="sRGB">
<feFlood flood-opacity="0" result="BackgroundImageFix"/>
<feColorMatrix in="SourceAlpha" type="matrix" values="0 0 0 0 0 0 0 0 0 0 0 0 0 0 0 0 0 0 127 0" result="hardAlpha"/>
<feOffset dy="4"/>
<feGaussianBlur stdDeviation="6"/>
<feComposite in2="hardAlpha" operator="out"/>
<feColorMatrix type="matrix" values="0 0 0 0 0.354167 0 0 0 0 0.354167 0 0 0 0 0.354167 0 0 0 0.17 0"/>
<feBlend mode="normal" in2="BackgroundImageFix" result="effect1_dropShadow_679_860"/>
<feBlend mode="normal" in="SourceGraphic" in2="effect1_dropShadow_679_860" result="shape"/>
</filter>
</defs>
</svg>
