<svg width="22" height="25" viewBox="0 0 22 25" fill="none" xmlns="http://www.w3.org/2000/svg">
<path d="M1 10.3801C1 9.42659 1.45332 8.52983 2.22115 7.96442L11 1.5L19.7788 7.96443C20.5467 8.52983 21 9.42659 21 10.3801V21C21 22.3807 19.8807 23.5 18.5 23.5H15C14.4477 23.5 14 23.0523 14 22.5V16.5C14 16.2239 13.7761 16 13.5 16H8.5C8.22386 16 8 16.2239 8 16.5V22.5C8 23.0523 7.55228 23.5 7 23.5H3.5C2.11929 23.5 1 22.3807 1 21V10.3801Z" stroke="white" stroke-width="2" stroke-linecap="round" stroke-linejoin="round"/>
</svg>
