<svg width="49" height="49" viewBox="0 0 49 49" fill="none" xmlns="http://www.w3.org/2000/svg">
<g filter="url(#filter0_d_559_16880)">
<circle cx="24.5" cy="20.5" r="12.5" fill="white"/>
</g>
<path d="M24.75 12C19.918 12 16 15.918 16 20.75C16 25.582 19.918 29.5 24.75 29.5C29.582 29.5 33.5 25.582 33.5 20.75C33.5 15.918 29.582 12 24.75 12ZM24.75 28.0156C20.7383 28.0156 17.4844 24.7617 17.4844 20.75C17.4844 16.7383 20.7383 13.4844 24.75 13.4844C28.7617 13.4844 32.0156 16.7383 32.0156 20.75C32.0156 24.7617 28.7617 28.0156 24.75 28.0156Z" fill="#A1A1A1"/>
<path d="M24 16.9375C24 17.1861 24.0988 17.4246 24.2746 17.6004C24.4504 17.7762 24.6889 17.875 24.9375 17.875C25.1861 17.875 25.4246 17.7762 25.6004 17.6004C25.7762 17.4246 25.875 17.1861 25.875 16.9375C25.875 16.6889 25.7762 16.4504 25.6004 16.2746C25.4246 16.0988 25.1861 16 24.9375 16C24.6889 16 24.4504 16.0988 24.2746 16.2746C24.0988 16.4504 24 16.6889 24 16.9375ZM25.4062 19.125H24.4688C24.3828 19.125 24.3125 19.1953 24.3125 19.2812V24.5938C24.3125 24.6797 24.3828 24.75 24.4688 24.75H25.4062C25.4922 24.75 25.5625 24.6797 25.5625 24.5938V19.2812C25.5625 19.1953 25.4922 19.125 25.4062 19.125Z" fill="#A1A1A1"/>
<defs>
<filter id="filter0_d_559_16880" x="0" y="0" width="49" height="49" filterUnits="userSpaceOnUse" color-interpolation-filters="sRGB">
<feFlood flood-opacity="0" result="BackgroundImageFix"/>
<feColorMatrix in="SourceAlpha" type="matrix" values="0 0 0 0 0 0 0 0 0 0 0 0 0 0 0 0 0 0 127 0" result="hardAlpha"/>
<feOffset dy="4"/>
<feGaussianBlur stdDeviation="6"/>
<feComposite in2="hardAlpha" operator="out"/>
<feColorMatrix type="matrix" values="0 0 0 0 0.354167 0 0 0 0 0.354167 0 0 0 0 0.354167 0 0 0 0.17 0"/>
<feBlend mode="normal" in2="BackgroundImageFix" result="effect1_dropShadow_559_16880"/>
<feBlend mode="normal" in="SourceGraphic" in2="effect1_dropShadow_559_16880" result="shape"/>
</filter>
</defs>
</svg>
