<svg width="42" height="42" viewBox="0 0 42 42" fill="none" xmlns="http://www.w3.org/2000/svg">
<path d="M19.9746 1.40276C18.7933 1.59963 17.5301 2.3051 16.6359 3.26487L16.0945 3.86369L15.7254 3.6094C14.7164 2.92854 13.773 2.66604 12.3867 2.67424C11.5254 2.68244 11.2629 2.71526 10.7297 2.88752C9.75349 3.20744 9.05623 3.64221 8.31794 4.38049C7.57966 5.11877 7.1449 5.81604 6.82498 6.79221C6.64451 7.34182 6.6199 7.57151 6.61169 8.53127C6.61169 9.50744 6.6363 9.71252 6.82498 10.2703C7.1613 11.2793 7.57966 11.9438 8.35896 12.7149C9.31873 13.6664 10.2129 14.1176 11.7304 14.3965C11.9355 14.4293 11.9519 14.4949 12.8543 19.0395C13.3629 21.5742 13.7976 23.666 13.8222 23.6906C13.8633 23.7317 14.9051 23.5676 15.0199 23.502C15.0445 23.4774 14.9871 23.059 14.8886 22.5586L14.7082 21.6563H21H27.2918L27.1113 22.5586C27.0129 23.059 26.9472 23.4774 26.9801 23.4938C27.0949 23.5594 28.1367 23.7317 28.1777 23.6906C28.2023 23.666 28.6371 21.5742 29.1457 19.0395L30.0644 14.4375L30.3515 14.3883C33.3375 13.9043 35.4375 11.4926 35.4375 8.53127C35.4375 6.19338 34.166 4.20002 32.0332 3.19104C30.1711 2.3133 27.9316 2.48557 26.2664 3.6258L25.9136 3.8719L25.364 3.27307C23.9613 1.75549 21.9761 1.06643 19.9746 1.40276ZM22.3945 2.85471C23.5101 3.24846 24.1828 3.76526 24.8226 4.72502C25.5117 5.75862 25.6429 5.79143 26.4633 5.11057C27.9972 3.84729 29.8429 3.60119 31.5492 4.42971C34.3629 5.79143 34.9863 9.52385 32.7715 11.7551C31.9511 12.5836 30.7043 13.125 29.6051 13.125C28.998 13.125 29.0062 13.1086 28.3336 16.4473C27.9972 18.1207 27.6855 19.6793 27.6363 19.909L27.5543 20.3438H26.291H25.0277L25.0687 20.1141C25.1508 19.6465 25.5855 16.5293 25.5609 16.5129C25.5199 16.4719 24.3469 16.3078 24.314 16.3406C24.2976 16.3653 24.1746 17.1528 24.0351 18.0961C23.9039 19.0395 23.7726 19.9336 23.748 20.0731L23.6988 20.3438H22.6816H21.6562V16.7344V13.125H21H20.3437V16.7344V20.3438H19.3183H18.3011L18.2519 20.0731C18.2273 19.9336 18.0961 19.0395 17.9648 18.0961C17.8254 17.1528 17.7023 16.3653 17.6859 16.3489C17.6777 16.3324 17.3742 16.3653 17.0297 16.4145C16.4062 16.5047 16.398 16.5129 16.439 16.7262C16.4636 16.841 16.5785 17.6203 16.6933 18.4571C16.8082 19.2938 16.923 20.0567 16.9394 20.1551L16.9804 20.3438H15.7172H14.4457L14.3636 19.909C14.3144 19.6793 14.0027 18.1207 13.6664 16.4473C12.9937 13.1086 13.0019 13.125 12.3949 13.125C11.1234 13.125 9.63044 12.3703 8.83474 11.3367C7.07927 9.03166 7.86677 5.68479 10.4508 4.42971C12.157 3.60119 14.0027 3.84729 15.5367 5.11057C15.8484 5.37307 16.1765 5.57815 16.275 5.57815C16.5539 5.57815 16.7836 5.37307 17.0707 4.87268C17.3742 4.33127 18.0879 3.6094 18.5965 3.30588C19.0148 3.05979 19.6793 2.80549 20.1386 2.69885C20.6472 2.59221 21.8859 2.67424 22.3945 2.85471Z" fill="white"/>
<path d="M7.23519 1.80463C5.02035 3.55189 3.80628 6.23431 3.96214 9.02338C4.01136 9.84369 4.27386 11.1152 4.42152 11.2628C4.46254 11.3038 4.74144 11.2546 5.07777 11.148C5.52894 11.0003 5.65199 10.9265 5.61918 10.8281C5.26644 9.92572 5.17621 7.87494 5.44691 6.85775C5.88988 5.19252 6.83324 3.75697 8.15394 2.73978L8.47386 2.48549L8.12933 1.9851C7.94066 1.70619 7.75199 1.4765 7.71918 1.4765C7.67816 1.4765 7.45668 1.62416 7.23519 1.80463Z" fill="white"/>
<path d="M5.63553 12.4688C5.18436 12.7477 5.09412 12.8297 5.15975 12.9445C5.32381 13.2563 5.99647 14.1094 6.0703 14.1094C6.17694 14.1094 7.02186 13.3547 6.99725 13.2727C6.98084 13.2398 6.84959 13.0512 6.71014 12.8543C6.56248 12.6656 6.38201 12.4195 6.31639 12.3211L6.19334 12.1406L5.63553 12.4688Z" fill="white"/>
<path d="M5.53712 17.1117C4.14259 17.3332 2.89572 18.1125 2.14103 19.2445C1.534 20.1469 1.35353 20.7949 1.36173 22.0254C1.36993 22.8703 1.40275 23.1 1.58321 23.6168C2.21486 25.364 3.35509 26.6109 5.11056 27.4476C6.5379 28.1203 8.42462 28.1531 9.84376 27.5133C10.1145 27.3984 10.377 27.3164 10.4344 27.341C10.5574 27.382 16.5539 31.623 16.7098 31.7789C16.7918 31.8527 16.1192 32.3203 13.568 33.9609C10.8938 35.6754 10.2703 36.1101 10.0406 36.4136C9.08087 37.7097 9.50743 39.5144 10.9512 40.2527C11.5008 40.5316 12.2883 40.5972 12.8707 40.4004C13.166 40.3019 14.4539 39.4406 17.1035 37.5621C19.2035 36.0773 20.959 34.8633 21 34.8633C21.0492 34.8633 22.7555 36.0527 24.7981 37.4965C26.8406 38.9484 28.7027 40.2281 28.9324 40.3347C29.2688 40.4906 29.4985 40.5316 29.9414 40.5316C30.9586 40.5316 31.7789 40.023 32.2383 39.1125C32.4516 38.6859 32.4844 38.5219 32.4844 37.9804C32.4844 37.439 32.4516 37.275 32.2383 36.8484C32.0988 36.5777 31.8692 36.2496 31.7215 36.1183C31.5738 35.9953 30.0727 35.0027 28.3828 33.9281C26.693 32.8535 25.2738 31.9429 25.241 31.9101C25.2 31.8773 25.8152 31.3933 26.5945 30.8437C27.3738 30.2859 28.7848 29.2769 29.7281 28.6043C30.6715 27.9316 31.4918 27.3656 31.5574 27.341C31.6149 27.3164 31.8938 27.3984 32.1563 27.5133C32.9438 27.866 33.7067 27.9972 34.7402 27.948C35.741 27.8988 36.266 27.7676 37.1027 27.3492C37.8492 26.9801 38.407 26.5535 39.0469 25.8644C39.6949 25.1754 40.1297 24.4535 40.4168 23.584C40.7203 22.6488 40.7367 21.3199 40.4496 20.434C39.4735 17.4644 35.9625 16.2094 32.8535 17.7187C30.6305 18.8015 29.3016 20.8769 29.277 23.2722V23.9121L25.1426 26.5535L21 29.1949L16.8656 26.5535L12.7231 23.9121L12.7149 23.2722C12.7067 21.9023 12.1899 20.4422 11.3285 19.3922C10.5902 18.4898 9.1629 17.5793 7.99806 17.2676C7.50587 17.1363 5.9965 17.0461 5.53712 17.1117ZM7.42384 18.498C8.34259 18.6867 9.28595 19.2117 10.016 19.9336C11.0578 20.959 11.468 22.0664 11.3613 23.5922C11.3203 24.314 11.3285 24.4371 11.4598 24.5847C11.5418 24.675 15.8649 27.4804 21.0738 30.8109C26.2828 34.1414 30.6469 36.9469 30.7699 37.0535C31.2047 37.4226 31.2867 38.2101 30.934 38.7023C30.6059 39.1617 29.8676 39.3504 29.3754 39.0961C29.2524 39.0304 25.3887 36.307 20.7867 33.0422C16.193 29.7773 12.0258 26.8242 11.5336 26.4715C10.9676 26.0777 10.5574 25.8398 10.418 25.8398C10.3031 25.8398 9.96681 25.9711 9.6715 26.1269C8.39181 26.7996 6.89884 26.8488 5.61915 26.2418C3.14181 25.0769 1.96056 22.3535 3.03517 20.2617C3.28126 19.7695 4.05236 19.023 4.55275 18.7851C5.37306 18.3832 6.39845 18.2847 7.42384 18.498ZM37.0125 18.6211C40.1215 19.7859 40.1379 23.8219 37.0371 25.8808C36.3152 26.3566 35.6098 26.5863 34.7402 26.6355C33.8051 26.6929 33.2309 26.5699 32.4106 26.1597C32.0578 25.9875 31.6723 25.8398 31.5574 25.8398C31.4262 25.8398 30.1383 26.7011 27.661 28.4648L23.9613 31.0898L23.0918 30.532L22.2223 29.9742L26.3074 27.3492C28.5551 25.9136 30.4582 24.6668 30.5402 24.5847C30.6715 24.4535 30.6879 24.3387 30.6387 23.6004C30.532 22.0664 30.9422 20.9672 31.984 19.9336C32.6977 19.2281 33.4606 18.7851 34.3875 18.539C35.175 18.3258 36.3235 18.3586 37.0125 18.6211ZM19.1789 33.5097C19.5481 33.7722 19.827 34.0183 19.7942 34.0429C19.6055 34.207 12.8953 38.9484 12.682 39.0633C12.116 39.375 11.2875 39.1289 10.9758 38.5547C10.7871 38.2101 10.8117 37.6113 11.025 37.275C11.107 37.1601 11.6238 36.7664 12.1652 36.4136C12.7149 36.0609 14.257 35.0765 15.586 34.2152L18.0059 32.6648L18.252 32.8453C18.3914 32.9437 18.8016 33.2472 19.1789 33.5097Z" fill="white"/>
<path d="M39.0059 27.6855C38.3168 28.2352 37.2012 28.8012 36.2988 29.0555C35.3555 29.3262 33.4769 29.3262 32.5418 29.0555C32.1973 28.957 31.8445 28.875 31.7625 28.875C31.6148 28.875 28.6125 30.9586 28.5633 31.0898C28.5469 31.1309 28.7027 31.3852 28.8996 31.6559L29.2605 32.1562L30.5977 31.2047L31.9348 30.2613L32.5172 30.4008C33.3211 30.5813 34.773 30.6387 35.6098 30.5156C37.2504 30.2777 38.9566 29.5066 40.1133 28.4813L40.466 28.1695L40.023 27.702L39.5801 27.2344L39.0059 27.6855Z" fill="white"/>
</svg>
