<svg width="40" height="41" viewBox="0 0 40 41" fill="none" xmlns="http://www.w3.org/2000/svg">
<path d="M32.4867 0.540061C27.924 0.974597 23.2993 2.91449 19.4661 5.98729L18.597 6.68565L18.1857 6.60805C17.5495 6.4839 16.0053 6.49942 15.2526 6.64685C13.6231 6.95723 12.1566 7.68663 10.9926 8.76522C10.3098 9.39374 10.1003 9.82828 10.1003 10.612C10.1003 11.5742 10.2167 11.7527 11.8539 13.4054L13.2584 14.8254L13.0101 15.5781C12.0867 18.4802 11.6211 21.3435 11.334 26.0303L11.2875 26.7907L10.721 26.4726C7.9819 24.975 4.57544 25.0991 1.98374 26.8062C1.6268 27.039 1.13019 27.4193 0.881879 27.652C0.4939 28.009 0.424064 28.1254 0.385266 28.4047C0.338708 28.7384 0.346468 28.7461 0.850841 29.235C2.88385 31.2214 6.14288 32.0052 8.97512 31.1826L9.56485 31.0119L9.39414 31.6017C8.57162 34.4417 9.34758 37.6852 11.3496 39.7415C11.8306 40.2303 11.8384 40.2381 12.1721 40.1915C12.4592 40.1527 12.5678 40.0829 12.917 39.6949C15.369 37.0256 15.8501 33.0372 14.0964 29.848C13.9025 29.4911 13.8171 29.2738 13.8792 29.2738C14.4301 29.266 16.9365 29.0953 17.821 29.0022C20.2188 28.7461 23.082 28.1719 24.9909 27.5667L25.7513 27.3184L27.1713 28.7229C28.8241 30.3601 29.0026 30.4765 29.9648 30.4765C30.508 30.4765 30.6399 30.4455 30.9968 30.2437C32.2461 29.5531 33.5342 27.3882 33.9299 25.3242C34.0774 24.5715 34.0929 23.0273 33.9687 22.3833L33.8834 21.972L34.4964 21.2193C37.189 17.8905 39.0745 13.8633 39.835 9.79724C39.9514 9.20751 39.9747 8.65658 39.9747 7.00379C39.9669 4.6604 39.9048 4.26466 39.3073 3.06192C38.6012 1.61864 37.2666 0.850444 35.0085 0.571099C34.3645 0.493503 33.1229 0.477984 32.4867 0.540061ZM35.5905 2.23165C36.3354 2.40236 37.1114 2.75154 37.4373 3.06968C38.4305 4.02411 38.7874 6.57701 38.3063 9.37046C38.0425 10.8913 37.5071 12.7847 37.0338 13.8633L36.8475 14.2823L36.2811 14.3754C35.3965 14.5228 33.6972 14.4375 32.8746 14.1969C32.0056 13.9486 31.4934 13.7391 30.7252 13.3201C30.3761 13.1261 29.9958 12.9787 29.8639 12.9787C29.5147 12.9787 29.2276 13.258 29.1733 13.6615C29.1345 13.9719 29.15 14.0107 29.4294 14.2823C29.6001 14.4375 30.0657 14.7323 30.4692 14.9341C31.9823 15.679 33.3557 16.0049 35.0163 16.0049H36.0561L35.8621 16.3929C34.7602 18.5578 32.4323 21.5297 30.733 22.9187C27.4274 25.619 21.9724 27.2796 15.2216 27.6443C14.4146 27.6831 13.5378 27.7219 13.2895 27.7219H12.8316L12.886 26.3484C13.1731 18.9846 14.8103 13.3356 17.6659 9.83604C18.9695 8.24532 21.7474 6.02608 23.8813 4.87767L24.5486 4.52073L24.5952 5.81658C24.634 7.15898 24.7581 7.85734 25.1228 8.90489C25.4332 9.77396 26.0307 10.0611 26.5195 9.57221C26.7989 9.28511 26.8066 9.02128 26.5506 8.2686C26.1471 7.05811 26.0074 5.45188 26.2092 4.2181L26.2945 3.69821L26.9463 3.44214C28.6457 2.77482 30.4459 2.33252 32.4867 2.08422C33.0919 2.01438 35.024 2.1075 35.5905 2.23165ZM17.0684 8.0591C17.0916 8.08237 16.8821 8.36948 16.6028 8.69538C15.8967 9.50238 14.95 10.9689 14.3836 12.1406C14.1197 12.6838 13.8869 13.1339 13.8637 13.1339C13.8404 13.1339 13.3205 12.6372 12.7152 12.0242C11.497 10.7982 11.4427 10.6896 11.7919 10.1852C12.2031 9.56445 13.6697 8.6721 14.8336 8.33068C15.5397 8.11341 16.952 7.95046 17.0684 8.0591ZM32.4867 24.4318C32.378 25.4794 32.0521 26.5114 31.5555 27.3339C31.121 28.0555 30.5856 28.7073 30.2985 28.8548C29.8406 29.0953 29.7398 29.0332 28.5525 27.8615C27.9395 27.2563 27.4429 26.7364 27.4429 26.7131C27.4429 26.6898 27.893 26.4571 28.4439 26.1932C29.5535 25.6501 31.2762 24.5327 31.9823 23.8886C32.2384 23.6559 32.4789 23.4929 32.5099 23.5239C32.541 23.5627 32.5332 23.9662 32.4867 24.4318ZM8.39315 27.2175C9.1148 27.396 9.98387 27.7917 10.5891 28.203C10.9849 28.4746 10.9693 28.5134 10.2943 28.9246C9.71228 29.2815 8.93633 29.5997 8.19916 29.7859C7.36113 29.9954 5.7549 29.9799 4.90134 29.7471C4.21074 29.5609 3.18647 29.0953 2.6433 28.7229L2.28636 28.4823L2.66658 28.2107C3.4115 27.6676 4.69959 27.1632 5.72386 27.0235C6.43774 26.9226 7.57064 27.008 8.39315 27.2175ZM12.8084 30.7481C13.9878 33.0139 13.8326 35.722 12.4049 37.8714L12.1255 38.2904L11.9393 38.0732C11.6367 37.6929 11.0004 36.3273 10.8219 35.6754C10.6046 34.8529 10.5814 33.1381 10.7909 32.3776C11.0625 31.3534 11.4349 30.5308 11.9082 29.9023L12.1022 29.6385L12.2885 29.8635C12.3893 29.9877 12.6221 30.3834 12.8084 30.7481Z" fill="white"/>
<path d="M33.3866 6.18903C33.0684 6.35974 32.9598 6.53045 32.952 6.87187C32.952 7.52368 33.759 7.88062 34.2168 7.43056C34.6126 7.03482 34.5039 6.39078 34.0073 6.18903C33.6737 6.04936 33.6659 6.04936 33.3866 6.18903Z" fill="white"/>
<path d="M27.3885 10.9379C27.1169 10.9923 26.822 11.3958 26.822 11.7139C26.822 12.3347 27.6678 12.6838 28.1024 12.2493C28.6688 11.6829 28.1799 10.7905 27.3885 10.9379Z" fill="white"/>
</svg>
