<svg width="86" height="64" viewBox="0 0 86 64" fill="none" xmlns="http://www.w3.org/2000/svg">
<circle cx="43" cy="22" r="21" stroke="#434343" stroke-width="2"/>
<path d="M5.30043 63.8636H6.47372V59.8267H6.57315C6.83168 60.2443 7.32884 61.1591 8.80043 61.1591C10.7095 61.1591 12.0419 59.6278 12.0419 57.2017C12.0419 54.7955 10.7095 53.2642 8.78054 53.2642C7.28906 53.2642 6.83168 54.179 6.57315 54.5767H6.43395V53.3636H5.30043V63.8636ZM6.45384 57.1818C6.45384 55.4716 7.20952 54.3182 8.64134 54.3182C10.1328 54.3182 10.8686 55.571 10.8686 57.1818C10.8686 58.8125 10.1129 60.1051 8.64134 60.1051C7.2294 60.1051 6.45384 58.9119 6.45384 57.1818ZM17.0334 61.1591C18.5845 61.1591 19.718 60.3835 20.076 59.2301L18.9425 58.9119C18.6442 59.7074 17.9531 60.1051 17.0334 60.1051C15.6562 60.1051 14.7067 59.2152 14.652 57.5795H20.1953V57.0824C20.1953 54.2386 18.505 53.2642 16.9141 53.2642C14.8459 53.2642 13.4737 54.8949 13.4737 57.2415C13.4737 59.5881 14.826 61.1591 17.0334 61.1591ZM14.652 56.5653C14.7315 55.3771 15.5717 54.3182 16.9141 54.3182C18.1868 54.3182 19.0021 55.2727 19.0021 56.5653H14.652ZM27.3892 55.0739C27.0213 53.9901 26.196 53.2642 24.6847 53.2642C23.0739 53.2642 21.8807 54.179 21.8807 55.4716C21.8807 56.5256 22.5071 57.2315 23.9091 57.5597L25.1818 57.858C25.9524 58.0369 26.3153 58.4048 26.3153 58.9318C26.3153 59.5881 25.6193 60.125 24.5256 60.125C23.5661 60.125 22.9645 59.7124 22.7557 58.892L21.642 59.1705C21.9155 60.468 22.9844 61.1591 24.5455 61.1591C26.3203 61.1591 27.5284 60.1896 27.5284 58.8722C27.5284 57.8082 26.8622 57.1371 25.5 56.804L24.3665 56.5256C23.4616 56.3018 23.054 55.9986 23.054 55.4119C23.054 54.7557 23.75 54.2784 24.6847 54.2784C25.7088 54.2784 26.1314 54.8452 26.3352 55.3722L27.3892 55.0739ZM32.3968 61.1591C34.0872 61.1591 35.2008 60.125 35.3997 58.7727H34.2264C34.0076 59.608 33.3116 60.1051 32.3968 60.1051C31.0048 60.1051 30.1099 58.9517 30.1099 57.1818C30.1099 55.4517 31.0247 54.3182 32.3968 54.3182C33.4309 54.3182 34.0474 54.9545 34.2264 55.6506H35.3997C35.2008 54.2188 33.9877 53.2642 32.377 53.2642C30.3088 53.2642 28.9366 54.8949 28.9366 57.2216C28.9366 59.5085 30.2491 61.1591 32.3968 61.1591ZM40.3166 61.1591C41.8677 61.1591 43.0012 60.3835 43.3592 59.2301L42.2257 58.9119C41.9274 59.7074 41.2363 60.1051 40.3166 60.1051C38.9395 60.1051 37.9899 59.2152 37.9352 57.5795H43.4785V57.0824C43.4785 54.2386 41.7882 53.2642 40.1973 53.2642C38.1291 53.2642 36.7569 54.8949 36.7569 57.2415C36.7569 59.5881 38.1092 61.1591 40.3166 61.1591ZM37.9352 56.5653C38.0147 55.3771 38.8549 54.3182 40.1973 54.3182C41.47 54.3182 42.2853 55.2727 42.2853 56.5653H37.9352ZM48.5843 53.3636H46.9537V51.5341H45.7804V53.3636H44.627V54.358H45.7804V59.1307C45.7804 60.4631 46.8542 61.0994 47.8485 61.0994C48.286 61.0994 48.5645 61.0199 48.7235 60.9602L48.4849 59.9062C48.3855 59.9261 48.2264 59.9659 47.9679 59.9659C47.4508 59.9659 46.9537 59.8068 46.9537 58.8125V54.358H48.5843V53.3636ZM52.5964 61.179C53.9288 61.179 54.6248 60.4631 54.8635 59.9659H54.9231V61H56.0964V55.9688C56.0964 53.5426 54.247 53.2642 53.2725 53.2642C52.1191 53.2642 50.8066 53.6619 50.21 55.054L51.3237 55.4517C51.5822 54.8949 52.1937 54.2983 53.3123 54.2983C54.3912 54.2983 54.9231 54.87 54.9231 55.8494V55.8892C54.9231 56.456 54.3464 56.4062 52.9544 56.5852C51.5375 56.7692 49.9913 57.0824 49.9913 58.8324C49.9913 60.3239 51.1447 61.179 52.5964 61.179ZM52.7754 60.125C51.8407 60.125 51.1646 59.7074 51.1646 58.892C51.1646 57.9972 51.9799 57.7188 52.8947 57.5994C53.3919 57.5398 54.7243 57.4006 54.9231 57.1619V58.2358C54.9231 59.1903 54.1674 60.125 52.7754 60.125ZM58.2379 61H59.4112V56.1676C59.4112 55.1335 60.2266 54.3778 61.3402 54.3778C61.6534 54.3778 61.9766 54.4375 62.0561 54.4574V53.2642C61.9219 53.2543 61.6136 53.2443 61.4396 53.2443C60.5249 53.2443 59.7294 53.7614 59.451 54.517H59.3714V53.3636H58.2379V61ZM63.4469 61H64.6202V53.3636H63.4469V61ZM64.0435 52.0909C64.5009 52.0909 64.8787 51.733 64.8787 51.2955C64.8787 50.858 64.5009 50.5 64.0435 50.5C63.5861 50.5 63.2083 50.858 63.2083 51.2955C63.2083 51.733 63.5861 52.0909 64.0435 52.0909ZM69.0163 61.179C70.3487 61.179 71.0447 60.4631 71.2834 59.9659H71.343V61H72.5163V55.9688C72.5163 53.5426 70.6669 53.2642 69.6925 53.2642C68.5391 53.2642 67.2266 53.6619 66.63 55.054L67.7436 55.4517C68.0021 54.8949 68.6136 54.2983 69.7322 54.2983C70.8111 54.2983 71.343 54.87 71.343 55.8494V55.8892C71.343 56.456 70.7663 56.4062 69.3743 56.5852C67.9574 56.7692 66.4112 57.0824 66.4112 58.8324C66.4112 60.3239 67.5646 61.179 69.0163 61.179ZM69.1953 60.125C68.2607 60.125 67.5845 59.7074 67.5845 58.892C67.5845 57.9972 68.3999 57.7188 69.3146 57.5994C69.8118 57.5398 71.1442 57.4006 71.343 57.1619V58.2358C71.343 59.1903 70.5874 60.125 69.1953 60.125ZM75.8311 56.4062C75.8311 55.0739 76.6564 54.3182 77.78 54.3182C78.8688 54.3182 79.53 55.0291 79.53 56.2273V61H80.7033V56.1477C80.7033 54.1989 79.6642 53.2642 78.1181 53.2642C76.9647 53.2642 76.2488 53.7812 75.8908 54.5568H75.7914V53.3636H74.6578V61H75.8311V56.4062Z" fill="#434343"/>
</svg>
