<svg width="70" height="65" viewBox="0 0 70 65" fill="none" xmlns="http://www.w3.org/2000/svg">
<circle cx="35" cy="22" r="21" stroke="#434343" stroke-width="2"/>
<path d="M7.35236 53.3636H6.07963L3.97168 59.4489H3.89213L1.78418 53.3636H0.511452L3.33532 61H4.5285L7.35236 53.3636ZM11.8293 61.1591C13.3804 61.1591 14.5139 60.3835 14.8719 59.2301L13.7384 58.9119C13.4401 59.7074 12.749 60.1051 11.8293 60.1051C10.4521 60.1051 9.50257 59.2152 9.44789 57.5795H14.9912V57.0824C14.9912 54.2386 13.3009 53.2642 11.71 53.2642C9.64178 53.2642 8.26962 54.8949 8.26962 57.2415C8.26962 59.5881 9.62189 61.1591 11.8293 61.1591ZM9.44789 56.5653C9.52743 55.3771 10.3676 54.3182 11.71 54.3182C12.9827 54.3182 13.798 55.2727 13.798 56.5653H9.44789ZM19.8584 64.0227C21.6879 64.0227 23.1595 63.1875 23.1595 61.2188V53.3636H22.026V54.5767H21.9067C21.6482 54.179 21.1709 53.2642 19.6794 53.2642C17.7504 53.2642 16.4181 54.7955 16.4181 57.142C16.4181 59.5284 17.8101 60.8807 19.6595 60.8807C21.151 60.8807 21.6283 60.0057 21.8868 59.5881H21.9862V61.1392C21.9862 62.4119 21.0914 62.9886 19.8584 62.9886C18.4713 62.9886 17.9841 62.2578 17.6709 61.8352L16.7362 62.4915C17.2135 63.2919 18.1531 64.0227 19.8584 64.0227ZM19.8186 59.8267C18.347 59.8267 17.5914 58.7131 17.5914 57.1222C17.5914 55.571 18.3271 54.3182 19.8186 54.3182C21.2504 54.3182 22.0061 55.4716 22.0061 57.1222C22.0061 58.8125 21.2306 59.8267 19.8186 59.8267ZM28.509 61.1591C30.0601 61.1591 31.1936 60.3835 31.5516 59.2301L30.4181 58.9119C30.1198 59.7074 29.4287 60.1051 28.509 60.1051C27.1318 60.1051 26.1823 59.2152 26.1276 57.5795H31.6709V57.0824C31.6709 54.2386 29.9806 53.2642 28.3896 53.2642C26.3215 53.2642 24.9493 54.8949 24.9493 57.2415C24.9493 59.5881 26.3016 61.1591 28.509 61.1591ZM26.1276 56.5653C26.2071 55.3771 27.0473 54.3182 28.3896 54.3182C29.6624 54.3182 30.4777 55.2727 30.4777 56.5653H26.1276ZM36.7767 53.3636H35.146V51.5341H33.9727V53.3636H32.8193V54.358H33.9727V59.1307C33.9727 60.4631 35.0466 61.0994 36.0409 61.0994C36.4784 61.0994 36.7568 61.0199 36.9159 60.9602L36.6773 59.9062C36.5779 59.9261 36.4188 59.9659 36.1602 59.9659C35.6432 59.9659 35.146 59.8068 35.146 58.8125V54.358H36.7767V53.3636ZM40.7888 61.179C42.1212 61.179 42.8172 60.4631 43.0558 59.9659H43.1155V61H44.2888V55.9688C44.2888 53.5426 42.4394 53.2642 41.4649 53.2642C40.3115 53.2642 38.999 53.6619 38.4024 55.054L39.5161 55.4517C39.7746 54.8949 40.3861 54.2983 41.5047 54.2983C42.5835 54.2983 43.1155 54.87 43.1155 55.8494V55.8892C43.1155 56.456 42.5388 56.4062 41.1468 56.5852C39.7298 56.7692 38.1837 57.0824 38.1837 58.8324C38.1837 60.3239 39.3371 61.179 40.7888 61.179ZM40.9678 60.125C40.0331 60.125 39.357 59.7074 39.357 58.892C39.357 57.9972 40.1723 57.7188 41.0871 57.5994C41.5843 57.5398 42.9166 57.4006 43.1155 57.1619V58.2358C43.1155 59.1903 42.3598 60.125 40.9678 60.125ZM46.4303 61H47.6036V56.1676C47.6036 55.1335 48.4189 54.3778 49.5326 54.3778C49.8458 54.3778 50.1689 54.4375 50.2485 54.4574V53.2642C50.1143 53.2543 49.806 53.2443 49.632 53.2443C48.7172 53.2443 47.9218 53.7614 47.6434 54.517H47.5638V53.3636H46.4303V61ZM51.6393 61H52.8126V53.3636H51.6393V61ZM52.2359 52.0909C52.6933 52.0909 53.0711 51.733 53.0711 51.2955C53.0711 50.858 52.6933 50.5 52.2359 50.5C51.7785 50.5 51.4007 50.858 51.4007 51.2955C51.4007 51.733 51.7785 52.0909 52.2359 52.0909ZM57.2087 61.179C58.5411 61.179 59.2371 60.4631 59.4758 59.9659H59.5354V61H60.7087V55.9688C60.7087 53.5426 58.8593 53.2642 57.8849 53.2642C56.7314 53.2642 55.4189 53.6619 54.8224 55.054L55.936 55.4517C56.1945 54.8949 56.806 54.2983 57.9246 54.2983C59.0035 54.2983 59.5354 54.87 59.5354 55.8494V55.8892C59.5354 56.456 58.9587 56.4062 57.5667 56.5852C56.1498 56.7692 54.6036 57.0824 54.6036 58.8324C54.6036 60.3239 55.757 61.179 57.2087 61.179ZM57.3877 60.125C56.453 60.125 55.7769 59.7074 55.7769 58.892C55.7769 57.9972 56.5922 57.7188 57.507 57.5994C58.0042 57.5398 59.3366 57.4006 59.5354 57.1619V58.2358C59.5354 59.1903 58.7797 60.125 57.3877 60.125ZM64.0235 56.4062C64.0235 55.0739 64.8488 54.3182 65.9724 54.3182C67.0612 54.3182 67.7224 55.0291 67.7224 56.2273V61H68.8957V56.1477C68.8957 54.1989 67.8566 53.2642 66.3105 53.2642C65.157 53.2642 64.4411 53.7812 64.0832 54.5568H63.9838V53.3636H62.8502V61H64.0235V56.4062Z" fill="#434343"/>
<path d="M30.0021 8.07139C29.7396 8.16985 29.4606 8.416 29.3239 8.67309C29.2254 8.85908 29.198 8.99036 29.198 9.36779C29.198 9.77805 29.2145 9.8601 29.3512 10.0953C29.4333 10.2375 29.5645 10.3962 29.6466 10.4454L29.7833 10.5384L29.7615 11.5504C29.7232 13.082 29.7286 13.0656 28.1533 15.1387C27.0592 16.5719 26.5396 17.6276 26.2059 19.0936C26.091 19.6132 26.0856 19.7226 26.0692 24.1151L26.0473 28.6006L25.6261 28.7264C25.1611 28.8631 24.3352 29.2296 24.182 29.3719C24.0452 29.4922 24.0562 29.7985 24.1984 29.9407C24.3516 30.0939 24.5211 30.0611 25.1611 29.7766C25.8996 29.4539 26.4083 29.3281 27.1741 29.2953C28.1587 29.2515 29.1051 29.4649 29.8818 29.897C30.3522 30.165 30.8938 30.712 31.0962 31.1278C31.2603 31.4614 31.2767 31.538 31.2767 32.0139C31.2767 32.4898 31.2603 32.5664 31.1016 32.8946C30.6695 33.7698 29.6466 34.4207 28.3228 34.6669C27.6828 34.7872 26.6982 34.7544 26.091 34.5903C25.0955 34.3168 24.0562 33.737 23.4107 33.0806C22.6941 32.3585 22.6504 31.899 23.2357 31.0895C23.449 30.7996 23.3888 30.5479 23.0934 30.4331C22.8911 30.3565 22.6887 30.4713 22.448 30.7996C21.8408 31.6037 21.8517 32.4406 22.4753 33.272C23.2849 34.3442 25.0025 35.296 26.5396 35.5202C27.6445 35.6789 28.9847 35.4765 29.9693 34.9951C30.478 34.7489 31.2493 34.1855 31.3587 33.9831C31.4189 33.8737 31.4627 33.8737 33.864 33.8737H36.3146L36.9273 34.6067C37.6493 35.4655 37.8408 35.646 38.251 35.8375L38.5519 35.9797L42.7638 35.9961C45.7943 36.0071 47.0414 35.9961 47.2001 35.9469C47.7197 35.8047 48.0534 35.3507 48.0479 34.7872C48.0425 34.6013 47.8018 32.2819 47.5064 29.6344C46.9266 24.5035 46.943 24.5691 46.6093 24.2628C46.4178 24.0823 46.0787 23.9565 45.7724 23.9565C45.4551 23.9565 45.5262 23.9237 42.7584 25.3732C41.7026 25.9257 40.8274 26.3797 40.8055 26.3797C40.7891 26.3797 40.7618 24.859 40.7508 23.0047C40.7344 19.7664 40.729 19.6023 40.6141 19.0936C40.2804 17.6331 39.7608 16.5719 38.6667 15.1387C37.0914 13.0656 37.0968 13.082 37.0585 11.5504L37.0367 10.5384L37.1734 10.4454C37.2555 10.3962 37.3868 10.2375 37.4688 10.0953C37.6056 9.8601 37.622 9.77805 37.622 9.36779C37.622 8.99583 37.5946 8.85908 37.5016 8.67309C37.3539 8.39959 37.0585 8.14797 36.7796 8.06045C36.4787 7.97292 30.2538 7.98386 30.0021 8.07139ZM36.6921 8.95754C36.8835 9.14352 36.8835 9.51549 36.6975 9.73429L36.5662 9.88745L34.8541 9.90386C33.1912 9.92027 33.1365 9.92027 33.0162 10.0351C32.8083 10.2266 32.8575 10.522 33.1146 10.6533C33.235 10.7189 33.5577 10.7353 34.7392 10.7353H36.2162L36.238 11.7035C36.2818 13.2297 36.4185 13.5469 37.7532 15.2809C38.9293 16.8235 39.3177 17.5127 39.6459 18.6615C39.9303 19.6625 39.9467 19.9141 39.9467 23.5079V26.8447L37.2281 28.2669C35.3847 29.2296 34.4548 29.7493 34.329 29.8751C34.0008 30.2143 33.9133 30.7831 34.1321 31.2153C34.1758 31.2973 34.5314 31.7459 34.9197 32.2108L35.6254 33.0532H33.7874C32.0589 33.0532 31.9495 33.0478 31.9878 32.9602C32.1792 32.446 32.1628 31.5216 31.9386 30.9746C31.6213 30.1869 30.9102 29.4867 29.9639 29.0272C29.2363 28.6717 28.5416 28.5076 27.6227 28.4748L26.8678 28.4419L26.8897 24.0604L26.9061 19.6789L27.0483 19.0991C27.3875 17.7206 27.8469 16.8618 29.1105 15.2208C30.396 13.5579 30.5382 13.2187 30.582 11.709L30.6039 10.7463L31.0688 10.7244C31.5009 10.708 31.5392 10.697 31.6705 10.5493C31.769 10.429 31.7963 10.3579 31.769 10.2485C31.6979 9.95309 31.6213 9.92574 30.9102 9.90386C30.2702 9.88745 30.2538 9.88198 30.1225 9.73429C29.9365 9.51549 29.9365 9.14352 30.128 8.95754L30.2592 8.82079H33.41H36.5608L36.6921 8.95754ZM46.1334 25.0122C46.1881 25.1873 47.2219 34.459 47.2219 34.7818C47.2219 35.2194 47.5064 35.192 42.8131 35.1756C38.7433 35.1592 38.6558 35.1592 38.4698 35.0498C38.262 34.924 35.0237 31.1223 34.876 30.8214C34.7885 30.6573 34.7885 30.6354 34.8924 30.5042C34.9799 30.3784 38.2401 28.6498 44.9136 25.1763C45.7122 24.7551 45.756 24.7442 45.9201 24.8098C46.0185 24.8481 46.1115 24.9356 46.1334 25.0122Z" fill="black"/>
<path d="M30.5766 21.4786C30.1007 21.6481 29.7014 22.0365 29.5428 22.4851C29.4936 22.6273 29.4717 23.0375 29.4717 23.8635C29.4717 24.9849 29.4771 25.0505 29.603 25.3295C29.6795 25.4991 29.8382 25.7124 30.0023 25.8601C30.4672 26.2758 30.4618 26.2758 33.2789 26.2594C36.1069 26.243 35.9701 26.2649 36.4406 25.7507C36.8453 25.3131 36.8563 25.2584 36.8563 23.8635C36.8563 22.6875 36.8508 22.6218 36.725 22.3483C36.6539 22.1897 36.4898 21.9599 36.353 21.8341C36.1397 21.6427 36.085 21.6153 35.9373 21.6427C35.7294 21.681 35.5708 21.856 35.5708 22.0365C35.5708 22.1076 35.6529 22.2608 35.7623 22.3757C35.8662 22.4905 35.9756 22.6546 36.0084 22.7367C36.0358 22.8187 36.0631 23.3165 36.0631 23.8526C36.0631 24.9411 36.0248 25.0998 35.6857 25.324L35.4997 25.4498H33.1695C30.9541 25.4498 30.8283 25.4444 30.6642 25.3404C30.325 25.138 30.2922 24.9958 30.2922 23.8362C30.2922 22.8953 30.3031 22.7804 30.4016 22.6109C30.6259 22.2334 30.6915 22.2225 32.5677 22.2225C34.1814 22.2225 34.2471 22.217 34.3893 22.1076C34.5753 21.9599 34.5862 21.6864 34.4057 21.5223C34.2799 21.402 34.2525 21.402 32.5295 21.402C31.2057 21.4075 30.7353 21.4239 30.5766 21.4786Z" fill="black"/>
<path d="M41.4892 28.0098C41.1282 28.1411 40.8437 28.3654 40.6195 28.6991C40.3843 29.0437 40.3131 29.3336 40.3405 29.7767C40.4061 30.6738 41.0625 31.3028 41.9706 31.3466C42.6981 31.3794 43.3053 31.0293 43.6225 30.3838C43.8031 30.0173 43.8031 29.2515 43.6225 28.9069C43.1959 28.1028 42.2933 27.7254 41.4892 28.0098ZM42.441 28.8358C42.7801 28.989 42.9278 29.2351 42.9278 29.6454C42.9278 29.9025 42.9005 30.0173 42.813 30.1377C42.3972 30.6956 41.6643 30.6792 41.2704 30.0994C41.1008 29.8478 41.1172 29.3883 41.3142 29.1203C41.4564 28.9179 41.8065 28.7319 42.0526 28.7319C42.1456 28.7319 42.3152 28.7811 42.441 28.8358Z" fill="black"/>
<path d="M39.3945 30.7722C39.0663 30.898 38.8694 31.0676 38.7217 31.3684C38.3005 32.2053 38.8584 33.1079 39.7938 33.1079C40.483 33.1024 40.9863 32.5828 40.9863 31.8771C40.9808 31.4778 40.6909 31.0238 40.3135 30.8269C40.0892 30.712 39.6297 30.6847 39.3945 30.7722ZM40.0235 31.6365C40.3135 31.8607 40.1384 32.2874 39.761 32.2874C39.4109 32.2874 39.2687 31.8553 39.5422 31.6365C39.6242 31.5708 39.7282 31.5216 39.7829 31.5216C39.8376 31.5216 39.9415 31.5708 40.0235 31.6365Z" fill="black"/>
<path d="M43.4753 32.5007C43.0596 32.6922 42.7368 33.179 42.7368 33.6002C42.7368 33.8464 42.8954 34.2183 43.0814 34.4152C43.8418 35.2139 45.1546 34.6997 45.1546 33.6002C45.1546 32.725 44.2575 32.1397 43.4753 32.5007ZM44.2028 33.3048C44.2903 33.365 44.3231 33.4416 44.3231 33.6002C44.3231 33.8409 44.1809 33.9831 43.9348 33.9831C43.7707 33.9831 43.5573 33.7643 43.5573 33.6002C43.5573 33.5455 43.6066 33.4416 43.6722 33.3595C43.8035 33.1954 44.0168 33.1735 44.2028 33.3048Z" fill="black"/>
</svg>
