<svg width="70" height="65" viewBox="0 0 70 65" fill="none" xmlns="http://www.w3.org/2000/svg">
<circle cx="35" cy="22" r="21" stroke="#434343" stroke-width="2"/>
<path d="M22.1795 53.3636H20.9068L18.7988 59.4489H18.7193L16.6113 53.3636H15.3386L18.1625 61H19.3556L22.1795 53.3636ZM26.6564 61.1591C28.2076 61.1591 29.3411 60.3835 29.699 59.2301L28.5655 58.9119C28.2672 59.7074 27.5762 60.1051 26.6564 60.1051C25.2793 60.1051 24.3297 59.2152 24.275 57.5795H29.8184V57.0824C29.8184 54.2386 28.128 53.2642 26.5371 53.2642C24.4689 53.2642 23.0968 54.8949 23.0968 57.2415C23.0968 59.5881 24.449 61.1591 26.6564 61.1591ZM24.275 56.5653C24.3546 55.3771 25.1948 54.3182 26.5371 54.3182C27.8098 54.3182 28.6252 55.2727 28.6252 56.5653H24.275ZM34.6855 64.0227C36.5151 64.0227 37.9867 63.1875 37.9867 61.2188V53.3636H36.8532V54.5767H36.7338C36.4753 54.179 35.998 53.2642 34.5066 53.2642C32.5776 53.2642 31.2452 54.7955 31.2452 57.142C31.2452 59.5284 32.6373 60.8807 34.4867 60.8807C35.9782 60.8807 36.4554 60.0057 36.714 59.5881H36.8134V61.1392C36.8134 62.4119 35.9185 62.9886 34.6855 62.9886C33.2985 62.9886 32.8113 62.2578 32.498 61.8352L31.5634 62.4915C32.0407 63.2919 32.9803 64.0227 34.6855 64.0227ZM34.6458 59.8267C33.1742 59.8267 32.4185 58.7131 32.4185 57.1222C32.4185 55.571 33.1543 54.3182 34.6458 54.3182C36.0776 54.3182 36.8333 55.4716 36.8333 57.1222C36.8333 58.8125 36.0577 59.8267 34.6458 59.8267ZM42.3816 61.179C43.714 61.179 44.41 60.4631 44.6486 59.9659H44.7083V61H45.8816V55.9688C45.8816 53.5426 44.0321 53.2642 43.0577 53.2642C41.9043 53.2642 40.5918 53.6619 39.9952 55.054L41.1088 55.4517C41.3674 54.8949 41.9789 54.2983 43.0975 54.2983C44.1763 54.2983 44.7083 54.87 44.7083 55.8494V55.8892C44.7083 56.456 44.1316 56.4062 42.7395 56.5852C41.3226 56.7692 39.7765 57.0824 39.7765 58.8324C39.7765 60.3239 40.9299 61.179 42.3816 61.179ZM42.5605 60.125C41.6259 60.125 40.9498 59.7074 40.9498 58.892C40.9498 57.9972 41.7651 57.7188 42.6799 57.5994C43.177 57.5398 44.5094 57.4006 44.7083 57.1619V58.2358C44.7083 59.1903 43.9526 60.125 42.5605 60.125ZM49.1964 56.4062C49.1964 55.0739 50.0217 54.3182 51.1452 54.3182C52.234 54.3182 52.8952 55.0291 52.8952 56.2273V61H54.0685V56.1477C54.0685 54.1989 53.0295 53.2642 51.4833 53.2642C50.3299 53.2642 49.614 53.7812 49.256 54.5568H49.1566V53.3636H48.0231V61H49.1964V56.4062Z" fill="#434343"/>
<path d="M22.2292 9.07618C21.9313 9.22347 21.9257 9.33013 22.2011 10.3408C22.6676 12.0524 22.7463 12.733 22.6676 14.2312C22.6058 15.374 22.6732 16.8113 22.8249 17.5833C22.8924 17.9439 22.9317 18.0353 23.061 18.1267C23.2464 18.2639 23.415 18.274 23.6398 18.1674C23.904 18.0455 23.9096 17.9591 23.7523 16.7453C23.7185 16.4761 23.696 15.4705 23.7073 14.3074L23.7185 12.3267L23.5612 11.5648C23.4712 11.1433 23.3869 10.737 23.3757 10.6557L23.342 10.5135L23.786 10.7827C24.8987 11.4582 26.2195 12.4028 27.4053 13.3678C27.7931 13.6827 28.1696 13.957 28.2427 13.9824C28.5855 14.1043 28.9902 13.7691 28.9003 13.444C28.8441 13.2409 27.8268 12.3927 26.5061 11.4379C25.6912 10.8538 25.6912 10.8589 26.2251 11.0366C29.1588 11.9965 31.4855 13.1545 33.0647 14.4344L33.3907 14.6934L33.0535 14.9575C32.868 15.0997 32.4971 15.4095 32.2274 15.6432C31.9632 15.8768 31.7159 16.0647 31.6878 16.0545C31.6597 16.0444 31.4911 15.8717 31.3057 15.6787C30.575 14.8864 30.1592 14.4953 30.013 14.4699C29.6758 14.4141 29.3723 14.6477 29.3723 14.9575C29.3723 15.0439 29.5522 15.2724 29.9231 15.6635C30.221 15.9784 30.5863 16.3644 30.7324 16.5218L30.9909 16.8011L30.7099 17.1313C30.0299 17.9185 29.4117 18.8428 28.9452 19.7824C28.4619 20.7423 27.9111 22.4184 27.7706 23.3326C27.7538 23.4697 27.7088 23.5764 27.6751 23.5764C27.6414 23.5764 27.2536 23.2513 26.8152 22.8501C25.8935 22.0121 25.3652 21.3467 24.8201 20.3157C24.6346 19.9602 24.4267 19.6352 24.3536 19.5894C24.0951 19.4269 23.7073 19.5437 23.5949 19.818C23.5218 19.9907 23.5949 20.204 23.949 20.8592C24.6964 22.2355 25.8148 23.4799 27.1131 24.3636L27.6301 24.7191V24.9527C27.6301 26.1209 28.0291 27.5988 28.5968 28.5435L28.816 28.9142L28.5631 29.6101C28.0291 31.0778 27.6976 32.2155 27.3716 33.6579C27.1524 34.6584 27.158 34.7854 27.4671 34.9276C27.6638 35.0241 27.765 35.0241 27.9617 34.9276C28.1584 34.8413 28.2202 34.6991 28.3326 34.115C28.5349 33.1094 28.9902 31.474 29.3555 30.4582C29.4679 30.1484 29.5634 29.8894 29.5747 29.8792C29.5859 29.8691 29.7658 30.0011 29.9737 30.1738C31.7215 31.6213 34.2337 32.0987 36.7909 31.4689C38.2128 31.1185 39.7864 30.3719 41.2026 29.3866C41.8883 28.9142 43.0573 27.8782 43.608 27.2585C44.1982 26.5983 44.8726 25.6638 45.2322 25.0188C45.502 24.521 45.5076 24.5058 45.429 24.3331C45.3222 24.0995 45.2098 24.0233 44.9681 24.0233C44.6927 24.0233 44.5972 24.1147 44.2038 24.7597C43.5743 25.8009 42.8606 26.6745 41.9951 27.4769C40.1236 29.2139 37.7463 30.4379 35.6387 30.7426C35.1273 30.8137 33.9977 30.8137 33.5312 30.7376C32.5927 30.5903 31.6822 30.2144 30.9572 29.6964C30.4739 29.3409 29.9681 28.833 30.0074 28.7365C30.4964 27.6394 30.7774 27.03 31.0528 26.4967L31.3956 25.8365L31.907 25.8212C32.1936 25.8161 32.7051 25.8415 33.0423 25.8872C33.9302 25.999 34.1607 25.9888 34.3068 25.8466C34.4866 25.6739 34.5147 25.4606 34.3798 25.2676C34.2506 25.0797 34.0539 25.034 33.076 24.9476C32.7219 24.9121 32.3285 24.8765 32.1936 24.8664L31.952 24.841L32.188 24.4499C32.8512 23.358 34.3517 21.1944 34.5485 21.0572C34.7114 20.9404 35.3465 20.9303 36.4424 21.0318C37.0382 21.0877 37.5664 21.1182 37.6226 21.1029C37.9711 20.9912 38.0891 20.6052 37.8474 20.3513C37.7013 20.204 37.5102 20.1684 36.1558 20.0567L35.3802 19.9958L35.9591 19.3304C37.055 18.0709 37.7463 17.3852 37.9655 17.3293C38.4544 17.2024 39.3593 17.1567 40.0505 17.2227C40.8092 17.2989 41.0003 17.2633 41.1127 17.0449C41.2645 16.7402 41.0902 16.4456 40.6968 16.3593C40.5732 16.3339 40.1348 16.2983 39.7246 16.278L38.9771 16.2475L39.8201 15.4756C40.5957 14.7747 40.6687 14.6883 40.6687 14.5258C40.6687 14.2719 40.4439 14.0789 40.1573 14.0789C39.955 14.0789 39.8819 14.1246 39.2187 14.6833C38.8253 15.0185 38.1116 15.6736 37.6339 16.1409C37.1562 16.6132 36.6447 17.1059 36.5042 17.243L36.2457 17.4969L36.0996 17.2684C35.9141 16.9789 35.5432 16.6691 35.206 16.5218C34.97 16.4202 34.9138 16.4151 34.7395 16.4659C34.5485 16.5218 34.3742 16.725 34.3742 16.8926C34.3742 17.0551 34.5091 17.2176 34.7789 17.3751C35.0936 17.563 35.3577 17.9033 35.4139 18.1928C35.4477 18.3807 35.4308 18.4111 35.0374 18.8632C34.526 19.4422 33.5593 20.6408 33.0816 21.2858C32.7725 21.7023 32.7219 21.753 32.6713 21.6667C32.4409 21.2756 31.7496 20.783 31.4462 20.783C31.0921 20.783 30.8617 21.0623 30.9572 21.3823C30.9909 21.5042 31.0865 21.5956 31.3169 21.7327C31.6653 21.941 31.862 22.2051 31.9576 22.5758L32.0138 22.8196L31.5586 23.5408C31.0247 24.3941 30.0074 26.2529 29.6196 27.0909C29.4679 27.4211 29.3274 27.6902 29.3105 27.6902C29.2543 27.6902 28.9284 26.771 28.8328 26.3342C28.7092 25.7806 28.6642 24.4652 28.7485 23.8506C28.9733 22.1898 29.6758 20.331 30.62 18.914C32.7556 15.699 36.6166 13.3374 43.0573 11.3058C43.6137 11.1331 44.0745 10.9909 44.0801 11.0011C44.0857 11.0062 43.8497 11.1738 43.5462 11.3718C42.6077 11.9864 41.4499 12.865 41.3937 13.0021C41.2757 13.2866 41.5286 13.6218 41.8602 13.6218C42.0119 13.6218 42.1749 13.5304 42.692 13.1596C43.046 12.9057 43.6418 12.4892 44.0127 12.2352C44.7714 11.7121 46.5698 10.61 46.6092 10.6405C46.6204 10.6557 46.5698 10.9097 46.4911 11.2144C46.0809 12.8447 45.9179 14.2973 46.0078 15.5619C46.1764 17.9134 46.0191 19.8485 45.5076 21.7378C45.3278 22.393 45.3334 22.5098 45.5357 22.6672C45.71 22.8044 45.8786 22.8247 46.0865 22.7383C46.3113 22.6418 46.345 22.5758 46.5642 21.7734C47.07 19.9145 47.1431 18.9241 47.07 15.0185C47.0532 13.9163 47.0644 13.6015 47.1487 13.1139C47.2948 12.2911 47.4915 11.4531 47.7838 10.4119C48.0254 9.55868 48.0367 9.50789 47.9524 9.3606C47.8512 9.18792 47.7051 9.10158 47.5196 9.10158C47.3623 9.10158 45.7943 9.50789 44.3499 9.92435C40.3596 11.0722 37.2911 12.3165 34.8576 13.764L34.2506 14.1297L33.9246 13.8605C31.7609 12.0473 28.5799 10.6202 23.8815 9.35044C23.1621 9.15745 22.5271 9 22.4765 9C22.4203 9.00508 22.3079 9.03555 22.2292 9.07618Z" fill="black"/>
</svg>
