<svg width="78" height="65" viewBox="0 0 78 65" fill="none" xmlns="http://www.w3.org/2000/svg">
<circle cx="39" cy="22" r="21" stroke="#434343" stroke-width="2"/>
<path d="M6.1123 64.0227C7.94185 64.0227 9.41344 63.1875 9.41344 61.2188V53.3636H8.27992V54.5767H8.1606C7.90208 54.179 7.4248 53.2642 5.93333 53.2642C4.00435 53.2642 2.67196 54.7955 2.67196 57.142C2.67196 59.5284 4.06401 60.8807 5.91344 60.8807C7.40492 60.8807 7.88219 60.0057 8.14071 59.5881H8.24015V61.1392C8.24015 62.4119 7.34526 62.9886 6.1123 62.9886C4.72523 62.9886 4.23802 62.2578 3.9248 61.8352L2.99015 62.4915C3.46742 63.2919 4.40705 64.0227 6.1123 64.0227ZM6.07253 59.8267C4.60094 59.8267 3.84526 58.7131 3.84526 57.1222C3.84526 55.571 4.58105 54.3182 6.07253 54.3182C7.50435 54.3182 8.26003 55.4716 8.26003 57.1222C8.26003 58.8125 7.48446 59.8267 6.07253 59.8267ZM12.7345 50.8182H11.5612V61H12.7345V50.8182ZM19.6959 57.8778C19.6959 59.3097 18.6022 59.9659 17.7272 59.9659C16.7528 59.9659 16.0567 59.25 16.0567 58.1364V53.3636H14.8834V58.2159C14.8834 60.1648 15.9175 61.0994 17.3493 61.0994C18.5028 61.0994 19.2584 60.483 19.6164 59.7074H19.6959V61H20.8692V53.3636H19.6959V57.8778ZM26.3392 53.3636H24.7085V51.5341H23.5352V53.3636H22.3818V54.358H23.5352V59.1307C23.5352 60.4631 24.6091 61.0994 25.6034 61.0994C26.0409 61.0994 26.3193 61.0199 26.4784 60.9602L26.2398 59.9062C26.1404 59.9261 25.9813 59.9659 25.7227 59.9659C25.2057 59.9659 24.7085 59.8068 24.7085 58.8125V54.358H26.3392V53.3636ZM31.2238 61.1591C32.7749 61.1591 33.9085 60.3835 34.2664 59.2301L33.1329 58.9119C32.8346 59.7074 32.1436 60.1051 31.2238 60.1051C29.8467 60.1051 28.8971 59.2152 28.8424 57.5795H34.3857V57.0824C34.3857 54.2386 32.6954 53.2642 31.1045 53.2642C29.0363 53.2642 27.6642 54.8949 27.6642 57.2415C27.6642 59.5881 29.0164 61.1591 31.2238 61.1591ZM28.8424 56.5653C28.922 55.3771 29.7622 54.3182 31.1045 54.3182C32.3772 54.3182 33.1926 55.2727 33.1926 56.5653H28.8424ZM37.3438 56.4062C37.3438 55.0739 38.1691 54.3182 39.2927 54.3182C40.3815 54.3182 41.0427 55.0291 41.0427 56.2273V61H42.216V56.1477C42.216 54.1989 41.1769 53.2642 39.6308 53.2642C38.4774 53.2642 37.7615 53.7812 37.4035 54.5568H37.3041V53.3636H36.1705V61H37.3438V56.4062ZM48.735 56.0881H44.2805V57.1818H48.735V56.0881ZM54.2 53.3636H52.4898V52.5881C52.4898 51.8324 52.808 51.4347 53.5835 51.4347C53.9216 51.4347 54.1205 51.5142 54.2398 51.554L54.5779 50.5398C54.3989 50.4602 54.0409 50.3409 53.4642 50.3409C52.3705 50.3409 51.3165 50.9972 51.3165 52.3097V53.3636H50.0835V54.358H51.3165V61H52.4898V54.358H54.2V53.3636ZM55.8444 61H57.0177V56.1676C57.0177 55.1335 57.833 54.3778 58.9466 54.3778C59.2599 54.3778 59.583 54.4375 59.6626 54.4574V53.2642C59.5283 53.2543 59.2201 53.2443 59.0461 53.2443C58.1313 53.2443 57.3358 53.7614 57.0574 54.517H56.9779V53.3636H55.8444V61ZM64.0226 61.1591C65.5738 61.1591 66.7073 60.3835 67.0653 59.2301L65.9317 58.9119C65.6334 59.7074 64.9424 60.1051 64.0226 60.1051C62.6455 60.1051 61.6959 59.2152 61.6412 57.5795H67.1846V57.0824C67.1846 54.2386 65.4942 53.2642 63.9033 53.2642C61.8351 53.2642 60.463 54.8949 60.463 57.2415C60.463 59.5881 61.8153 61.1591 64.0226 61.1591ZM61.6412 56.5653C61.7208 55.3771 62.561 54.3182 63.9033 54.3182C65.176 54.3182 65.9914 55.2727 65.9914 56.5653H61.6412ZM72.1711 61.1591C73.7222 61.1591 74.8557 60.3835 75.2137 59.2301L74.0802 58.9119C73.7819 59.7074 73.0908 60.1051 72.1711 60.1051C70.7939 60.1051 69.8444 59.2152 69.7897 57.5795H75.333V57.0824C75.333 54.2386 73.6427 53.2642 72.0518 53.2642C69.9836 53.2642 68.6114 54.8949 68.6114 57.2415C68.6114 59.5881 69.9637 61.1591 72.1711 61.1591ZM69.7897 56.5653C69.8692 55.3771 70.7094 54.3182 72.0518 54.3182C73.3245 54.3182 74.1398 55.2727 74.1398 56.5653H69.7897Z" fill="#434343"/>
<path d="M37.3542 6.0351C34.179 6.35695 31.2947 7.53295 28.8375 9.51358C27.8843 10.2749 27.7481 10.5163 28.07 10.8319C28.3175 11.0857 28.4661 11.0362 29.1407 10.473C32.056 8.02192 35.6273 6.77784 39.3348 6.9202C40.5232 6.96971 41.3402 7.08731 42.4605 7.35965C44.732 7.92289 46.9974 9.12365 48.6995 10.6586L49.0275 10.9557L45.5738 14.4033C42.77 17.2071 42.0891 17.857 41.9529 17.857C41.693 17.857 40.7274 18.1603 40.3499 18.3583C40.158 18.4636 39.8423 18.6864 39.6505 18.8597L39.3039 19.1692V18.5316V17.9003L39.7309 17.4547C40.5727 16.5634 40.9998 15.8516 41.2288 14.9479C41.5878 13.5429 40.9379 11.9646 39.4524 10.6277C38.8582 10.0892 38.7468 10.0954 38.1093 10.6772C37.2056 11.5128 36.5495 12.5588 36.3577 13.4748C36.0853 14.7375 36.5929 16.0868 37.8184 17.3866L38.3135 17.9065V18.5378V19.1692L37.9669 18.8535C37.1809 18.1603 36.0977 17.7889 34.7855 17.7765C33.3682 17.758 33.3372 17.7827 33.3372 19.0268C33.3434 21.2241 34.1295 22.6476 35.6954 23.3037C35.9368 23.4028 36.1782 23.4894 36.2339 23.4894C36.4196 23.4894 36.3824 23.6008 36.1101 23.867L35.8378 24.1393H34.7484H33.6591L33.5167 24.3064C33.3991 24.4426 33.3682 24.5726 33.3372 25.0182C33.3124 25.3153 33.3248 25.7857 33.3558 26.058L33.4177 26.5532L30.6819 29.2951L27.9462 32.0371L27.6491 31.709C26.1265 30.0255 24.9257 27.7601 24.3563 25.501C24.0159 24.1455 23.9292 23.3842 23.9292 21.8183C23.9292 20.2399 24.0159 19.4724 24.3563 18.1293C24.8205 16.3034 25.5942 14.657 26.733 13.0663C27.2653 12.3174 27.2963 12.1379 26.9125 11.9399C26.6402 11.7975 26.4669 11.8718 26.1636 12.2741C24.5543 14.3599 23.4588 17.0462 23.0813 19.8376C22.976 20.6175 22.9698 23.0376 23.0813 23.7989C23.7311 28.5214 26.2441 32.5198 30.1744 35.1009C35.3735 38.5174 42.281 38.5051 47.4863 35.0761C55.3222 29.9079 57.0119 19.163 51.1443 11.8842C48.6128 8.74609 45.1096 6.74689 41.0369 6.12794C40.2632 6.01034 38.1402 5.96083 37.3542 6.0351ZM39.3472 11.8532C40.5789 13.283 40.7212 14.4961 39.8052 15.8887C39.2977 16.6686 39.3039 16.681 39.3039 15.406C39.3039 13.9762 39.2234 13.7162 38.8087 13.7162C38.394 13.7162 38.3135 13.9762 38.3135 15.406C38.3135 16.681 38.3197 16.6686 37.8122 15.8887C37.0818 14.7808 37.0261 13.8524 37.6079 12.7816C37.9298 12.1936 38.7035 11.2714 38.8335 11.3147C38.8706 11.3271 39.0996 11.5685 39.3472 11.8532ZM50.6925 12.8126C51.8932 14.3785 52.8155 16.3158 53.2859 18.2284C53.6077 19.5715 53.6882 20.2771 53.6882 21.8183C53.6882 23.3842 53.6015 24.1455 53.2611 25.501C51.9428 30.7373 47.7277 34.9523 42.4914 36.2707C41.1359 36.6111 40.3746 36.6977 38.8087 36.6977C37.2613 36.6977 36.5495 36.6173 35.2188 36.2892C32.972 35.7384 30.849 34.6428 29.0727 33.1078L28.5837 32.6932L31.1152 30.1617C32.5016 28.7752 33.6529 27.6364 33.6714 27.6364C33.69 27.6364 33.7952 27.8158 33.9066 28.0325C34.538 29.2456 36.0915 30.0502 37.8308 30.0502H38.3074L38.3259 31.5914C38.3445 33.0026 38.3569 33.145 38.4621 33.2626C38.623 33.4421 38.9944 33.4421 39.1553 33.2626C39.2605 33.145 39.2729 33.0026 39.2915 31.5976L39.31 30.0688L40.0652 30.0317C40.9193 29.9945 41.6806 29.8027 42.3057 29.4746C42.7514 29.2394 43.426 28.6019 43.4879 28.3605C43.5498 28.1006 43.3518 27.8592 43.0609 27.8344C42.8566 27.8158 42.8009 27.8468 42.5409 28.1315C42.1696 28.5338 41.4516 28.8928 40.746 29.0352C39.8609 29.2023 39.8609 29.1837 40.7089 28.3915C41.5506 27.6054 41.6559 27.4383 41.5073 27.1536C41.4021 26.9555 41.2969 26.8936 41.0555 26.8936C40.9317 26.8936 40.7027 27.0793 40.0961 27.6797L39.3039 28.4657V28.2305C39.3039 27.8839 39.4833 27.1536 39.6752 26.7265C40.1456 25.6929 41.2597 25.0987 42.7885 25.0739L43.358 25.0677V25.5319C43.358 25.7857 43.3827 26.058 43.4075 26.1261C43.4694 26.3056 43.7541 26.4232 43.9521 26.3428C44.2554 26.2313 44.2864 26.1261 44.2802 25.3029C44.274 24.1393 44.1812 24.0712 42.7081 24.1331C41.3959 24.1826 40.3932 24.5354 39.6752 25.2039L39.3039 25.5443V24.653V23.7556L39.9785 23.7122C41.5754 23.6132 42.6895 23.1119 43.4075 22.1772C44.0264 21.354 44.3854 19.9057 44.2802 18.6059C44.2307 18.0055 44.1502 17.8817 43.7541 17.8199L43.5003 17.7765L46.5827 14.688L49.6712 11.5994L49.9683 11.9275C50.1292 12.107 50.4573 12.5031 50.6925 12.8126ZM35.6583 18.7854C36.5743 18.9525 37.2923 19.361 37.7008 19.9428C37.9731 20.339 38.2331 21.0941 38.2888 21.6697L38.3321 22.0968L37.5275 21.3045C36.7971 20.5927 36.7043 20.5185 36.5 20.5185C36.2586 20.5185 36.0234 20.7413 36.0234 20.9703C36.0234 21.0508 36.3267 21.4036 36.8281 21.9111C37.2737 22.3567 37.6327 22.7343 37.6327 22.7529C37.6327 22.8086 36.8281 22.691 36.4629 22.5857C35.0641 22.1772 34.3894 21.1931 34.2594 19.3548L34.2099 18.7235H34.767C35.0764 18.7235 35.4788 18.7483 35.6583 18.7854ZM43.3641 19.2991C43.2218 21.1993 42.5657 22.1834 41.1545 22.5857C40.7893 22.691 39.9847 22.8086 39.9847 22.7529C39.9847 22.7343 40.3499 22.3567 40.7893 21.9111C41.2907 21.4036 41.594 21.0508 41.594 20.9703C41.594 20.7413 41.3588 20.5185 41.1174 20.5185C40.9131 20.5185 40.8203 20.5927 40.0899 21.3045L39.2853 22.0968L39.3286 21.6759C39.4586 20.3328 40.1147 19.392 41.1916 19.002C41.7796 18.7854 42.0767 18.7359 42.7947 18.7297L43.4075 18.7235L43.3641 19.2991ZM38.3135 24.6407V25.5443L37.9546 25.2163C37.7565 25.0306 37.4223 24.7892 37.2056 24.6716L36.8157 24.4673L37.1747 24.1022L37.5337 23.737H37.9236H38.3135V24.6407ZM35.9863 25.2225C37.2551 25.5443 37.9422 26.2809 38.2145 27.593C38.2702 27.853 38.3135 28.1563 38.3135 28.2677C38.3135 28.4596 38.295 28.4472 37.5213 27.6797C36.8652 27.0298 36.6919 26.8936 36.5434 26.8936C36.1844 26.8936 35.943 27.234 36.0915 27.5311C36.1287 27.6054 36.4938 27.9953 36.9085 28.3977L37.6636 29.128L37.2923 29.0909C35.6583 28.93 34.7113 28.1377 34.3956 26.677C34.278 26.1385 34.1975 25.1977 34.2594 25.0925C34.3275 24.9873 35.3735 25.0615 35.9863 25.2225Z" fill="black"/>
</svg>
