<svg width="86" height="64" viewBox="0 0 86 64" fill="none" xmlns="http://www.w3.org/2000/svg">
<circle cx="43" cy="22" r="21" stroke="#434343" stroke-width="2"/>
<path d="M5.30043 63.8636H6.47372V59.8267H6.57315C6.83168 60.2443 7.32884 61.1591 8.80043 61.1591C10.7095 61.1591 12.0419 59.6278 12.0419 57.2017C12.0419 54.7955 10.7095 53.2642 8.78054 53.2642C7.28906 53.2642 6.83168 54.179 6.57315 54.5767H6.43395V53.3636H5.30043V63.8636ZM6.45384 57.1818C6.45384 55.4716 7.20952 54.3182 8.64134 54.3182C10.1328 54.3182 10.8686 55.571 10.8686 57.1818C10.8686 58.8125 10.1129 60.1051 8.64134 60.1051C7.2294 60.1051 6.45384 58.9119 6.45384 57.1818ZM17.0334 61.1591C18.5845 61.1591 19.718 60.3835 20.076 59.2301L18.9425 58.9119C18.6442 59.7074 17.9531 60.1051 17.0334 60.1051C15.6562 60.1051 14.7067 59.2152 14.652 57.5795H20.1953V57.0824C20.1953 54.2386 18.505 53.2642 16.9141 53.2642C14.8459 53.2642 13.4737 54.8949 13.4737 57.2415C13.4737 59.5881 14.826 61.1591 17.0334 61.1591ZM14.652 56.5653C14.7315 55.3771 15.5717 54.3182 16.9141 54.3182C18.1868 54.3182 19.0021 55.2727 19.0021 56.5653H14.652ZM27.3892 55.0739C27.0213 53.9901 26.196 53.2642 24.6847 53.2642C23.0739 53.2642 21.8807 54.179 21.8807 55.4716C21.8807 56.5256 22.5071 57.2315 23.9091 57.5597L25.1818 57.858C25.9524 58.0369 26.3153 58.4048 26.3153 58.9318C26.3153 59.5881 25.6193 60.125 24.5256 60.125C23.5661 60.125 22.9645 59.7124 22.7557 58.892L21.642 59.1705C21.9155 60.468 22.9844 61.1591 24.5455 61.1591C26.3203 61.1591 27.5284 60.1896 27.5284 58.8722C27.5284 57.8082 26.8622 57.1371 25.5 56.804L24.3665 56.5256C23.4616 56.3018 23.054 55.9986 23.054 55.4119C23.054 54.7557 23.75 54.2784 24.6847 54.2784C25.7088 54.2784 26.1314 54.8452 26.3352 55.3722L27.3892 55.0739ZM32.3968 61.1591C34.0872 61.1591 35.2008 60.125 35.3997 58.7727H34.2264C34.0076 59.608 33.3116 60.1051 32.3968 60.1051C31.0048 60.1051 30.1099 58.9517 30.1099 57.1818C30.1099 55.4517 31.0247 54.3182 32.3968 54.3182C33.4309 54.3182 34.0474 54.9545 34.2264 55.6506H35.3997C35.2008 54.2188 33.9877 53.2642 32.377 53.2642C30.3088 53.2642 28.9366 54.8949 28.9366 57.2216C28.9366 59.5085 30.2491 61.1591 32.3968 61.1591ZM40.3166 61.1591C41.8677 61.1591 43.0012 60.3835 43.3592 59.2301L42.2257 58.9119C41.9274 59.7074 41.2363 60.1051 40.3166 60.1051C38.9395 60.1051 37.9899 59.2152 37.9352 57.5795H43.4785V57.0824C43.4785 54.2386 41.7882 53.2642 40.1973 53.2642C38.1291 53.2642 36.7569 54.8949 36.7569 57.2415C36.7569 59.5881 38.1092 61.1591 40.3166 61.1591ZM37.9352 56.5653C38.0147 55.3771 38.8549 54.3182 40.1973 54.3182C41.47 54.3182 42.2853 55.2727 42.2853 56.5653H37.9352ZM48.5843 53.3636H46.9537V51.5341H45.7804V53.3636H44.627V54.358H45.7804V59.1307C45.7804 60.4631 46.8542 61.0994 47.8485 61.0994C48.286 61.0994 48.5645 61.0199 48.7235 60.9602L48.4849 59.9062C48.3855 59.9261 48.2264 59.9659 47.9679 59.9659C47.4508 59.9659 46.9537 59.8068 46.9537 58.8125V54.358H48.5843V53.3636ZM52.5964 61.179C53.9288 61.179 54.6248 60.4631 54.8635 59.9659H54.9231V61H56.0964V55.9688C56.0964 53.5426 54.247 53.2642 53.2725 53.2642C52.1191 53.2642 50.8066 53.6619 50.21 55.054L51.3237 55.4517C51.5822 54.8949 52.1937 54.2983 53.3123 54.2983C54.3912 54.2983 54.9231 54.87 54.9231 55.8494V55.8892C54.9231 56.456 54.3464 56.4062 52.9544 56.5852C51.5375 56.7692 49.9913 57.0824 49.9913 58.8324C49.9913 60.3239 51.1447 61.179 52.5964 61.179ZM52.7754 60.125C51.8407 60.125 51.1646 59.7074 51.1646 58.892C51.1646 57.9972 51.9799 57.7188 52.8947 57.5994C53.3919 57.5398 54.7243 57.4006 54.9231 57.1619V58.2358C54.9231 59.1903 54.1674 60.125 52.7754 60.125ZM58.2379 61H59.4112V56.1676C59.4112 55.1335 60.2266 54.3778 61.3402 54.3778C61.6534 54.3778 61.9766 54.4375 62.0561 54.4574V53.2642C61.9219 53.2543 61.6136 53.2443 61.4396 53.2443C60.5249 53.2443 59.7294 53.7614 59.451 54.517H59.3714V53.3636H58.2379V61ZM63.4469 61H64.6202V53.3636H63.4469V61ZM64.0435 52.0909C64.5009 52.0909 64.8787 51.733 64.8787 51.2955C64.8787 50.858 64.5009 50.5 64.0435 50.5C63.5861 50.5 63.2083 50.858 63.2083 51.2955C63.2083 51.733 63.5861 52.0909 64.0435 52.0909ZM69.0163 61.179C70.3487 61.179 71.0447 60.4631 71.2834 59.9659H71.343V61H72.5163V55.9688C72.5163 53.5426 70.6669 53.2642 69.6925 53.2642C68.5391 53.2642 67.2266 53.6619 66.63 55.054L67.7436 55.4517C68.0021 54.8949 68.6136 54.2983 69.7322 54.2983C70.8111 54.2983 71.343 54.87 71.343 55.8494V55.8892C71.343 56.456 70.7663 56.4062 69.3743 56.5852C67.9574 56.7692 66.4112 57.0824 66.4112 58.8324C66.4112 60.3239 67.5646 61.179 69.0163 61.179ZM69.1953 60.125C68.2607 60.125 67.5845 59.7074 67.5845 58.892C67.5845 57.9972 68.3999 57.7188 69.3146 57.5994C69.8118 57.5398 71.1442 57.4006 71.343 57.1619V58.2358C71.343 59.1903 70.5874 60.125 69.1953 60.125ZM75.8311 56.4062C75.8311 55.0739 76.6564 54.3182 77.78 54.3182C78.8688 54.3182 79.53 55.0291 79.53 56.2273V61H80.7033V56.1477C80.7033 54.1989 79.6642 53.2642 78.1181 53.2642C76.9647 53.2642 76.2488 53.7812 75.8908 54.5568H75.7914V53.3636H74.6578V61H75.8311V56.4062Z" fill="#434343"/>
<path d="M50.84 7.02603C47.7376 7.3215 44.593 8.64055 41.9865 10.7299L41.3956 11.2048L41.116 11.152C40.6833 11.0676 39.6334 11.0782 39.1216 11.1784C38.0136 11.3895 37.0164 11.8854 36.2249 12.6188C35.7606 13.0462 35.6182 13.3417 35.6182 13.8746C35.6182 14.5288 35.6973 14.6502 36.8106 15.774L37.7656 16.7395L37.5967 17.2513C36.9689 19.2246 36.6523 21.1716 36.4571 24.3584L36.4254 24.8755L36.0403 24.6591C34.1777 23.6408 31.8615 23.7252 30.0992 24.886C29.8565 25.0443 29.5189 25.3028 29.35 25.4611C29.0862 25.7038 29.0387 25.783 29.0123 25.9729C28.9807 26.1998 28.986 26.2051 29.3289 26.5375C30.7113 27.8882 32.9273 28.4211 34.8531 27.8618L35.2541 27.7457L35.138 28.1467C34.5787 30.0778 35.1064 32.2833 36.4676 33.6815C36.7948 34.0139 36.8 34.0191 37.0269 33.9875C37.2221 33.9611 37.296 33.9136 37.5334 33.6498C39.2007 31.8348 39.5278 29.1228 38.3354 26.9543C38.2035 26.7116 38.1455 26.5639 38.1877 26.5639C38.5623 26.5586 40.2665 26.4425 40.868 26.3792C42.4983 26.2051 44.4453 25.8146 45.7432 25.4031L46.2603 25.2342L47.2258 26.1892C48.3497 27.3025 48.471 27.3817 49.1253 27.3817C49.4946 27.3817 49.5843 27.3606 49.827 27.2234C50.6765 26.7538 51.5523 25.2817 51.8214 23.8783C51.9217 23.3665 51.9322 22.3165 51.8478 21.8786L51.7898 21.5989L52.2066 21.0871C54.0374 18.8236 55.3195 16.0853 55.8366 13.3206C55.9158 12.9196 55.9316 12.545 55.9316 11.4211C55.9263 9.8277 55.8841 9.55861 55.4778 8.7408C54.9977 7.75942 54.0902 7.23708 52.5548 7.04713C52.1169 6.99437 51.2727 6.98382 50.84 7.02603ZM52.9505 8.17624C53.457 8.29232 53.9847 8.52975 54.2063 8.74608C54.8816 9.39505 55.1243 11.1309 54.7972 13.0304C54.6178 14.0645 54.2537 15.3519 53.9319 16.0853L53.8053 16.3702L53.4201 16.4335C52.8186 16.5338 51.6631 16.4757 51.1038 16.3122C50.5129 16.1433 50.1647 16.0009 49.6423 15.716C49.4049 15.584 49.1464 15.4838 49.0567 15.4838C48.8192 15.4838 48.624 15.6737 48.5871 15.9481C48.5607 16.1592 48.5713 16.1855 48.7612 16.3702C48.8773 16.4757 49.1939 16.6762 49.4682 16.8134C50.4971 17.3199 51.431 17.5415 52.5601 17.5415H53.2671L53.1352 17.8053C52.386 19.2774 50.8031 21.2982 49.6476 22.2426C47.3999 24.0788 43.6908 25.2079 39.1005 25.4558C38.5517 25.4822 37.9555 25.5086 37.7867 25.5086H37.4754L37.5123 24.5747C37.7075 19.5676 38.8208 15.7265 40.7625 13.3469C41.6489 12.2653 43.5378 10.7563 44.9887 9.97543L45.4425 9.73273L45.4741 10.6139C45.5005 11.5266 45.5849 12.0015 45.8329 12.7138C46.044 13.3047 46.4502 13.4999 46.7826 13.1675C46.9726 12.9723 46.9778 12.7929 46.8037 12.2811C46.5294 11.4581 46.4344 10.3659 46.5716 9.52696L46.6296 9.17345L47.0728 8.99933C48.2283 8.54558 49.4524 8.24484 50.84 8.076C51.2516 8.02851 52.5654 8.09183 52.9505 8.17624ZM40.3562 12.1387C40.372 12.1545 40.2296 12.3497 40.0396 12.5713C39.5595 13.1201 38.9158 14.1173 38.5306 14.914C38.3512 15.2833 38.1929 15.5893 38.1771 15.5893C38.1613 15.5893 37.8078 15.2516 37.3962 14.8348C36.5679 14.0012 36.5309 13.9273 36.7684 13.5844C37.048 13.1623 38.0452 12.5555 38.8366 12.3233C39.3168 12.1756 40.2771 12.0648 40.3562 12.1387ZM50.84 23.2715C50.7662 23.9838 50.5446 24.6855 50.2069 25.2448C49.9114 25.7355 49.5474 26.1787 49.3521 26.2789C49.0408 26.4425 48.9723 26.4003 48.165 25.6036C47.7482 25.192 47.4105 24.8385 47.4105 24.8227C47.4105 24.8069 47.7165 24.6486 48.0911 24.4692C48.8456 24.0999 50.0169 23.3401 50.4971 22.9022C50.6712 22.7439 50.8348 22.6331 50.8559 22.6542C50.877 22.6806 50.8717 22.9549 50.84 23.2715ZM34.4574 25.1657C34.9481 25.287 35.539 25.5561 35.9506 25.8357C36.2196 26.0204 36.2091 26.0468 35.7501 26.3264C35.3543 26.5691 34.8267 26.7855 34.3255 26.9121C33.7557 27.0545 32.6635 27.044 32.0831 26.8857C31.6135 26.7591 30.917 26.4425 30.5477 26.1892L30.305 26.0257L30.5635 25.841C31.0701 25.4717 31.9459 25.1287 32.6424 25.0337C33.1278 24.9652 33.8981 25.0232 34.4574 25.1657ZM37.4596 27.5663C38.2615 29.107 38.156 30.9484 37.1852 32.4099L36.9952 32.6948L36.8686 32.5471C36.6628 32.2885 36.2302 31.3599 36.1088 30.9167C35.9611 30.3574 35.9453 29.1914 36.0877 28.6743C36.2724 27.9779 36.5257 27.4186 36.8475 26.9912L36.9794 26.8118L37.106 26.9648C37.1746 27.0493 37.3329 27.3183 37.4596 27.5663Z" fill="black"/>
<path d="M51.4522 10.8671C51.2359 10.9832 51.162 11.0993 51.1567 11.3314C51.1567 11.7746 51.7055 12.0173 52.0168 11.7113C52.2858 11.4422 52.212 11.0043 51.8743 10.8671C51.6474 10.7721 51.6421 10.7721 51.4522 10.8671Z" fill="black"/>
<path d="M47.3734 14.0962C47.1888 14.1331 46.9883 14.4075 46.9883 14.6238C46.9883 15.0459 47.5634 15.2833 47.8589 14.9879C48.244 14.6027 47.9116 13.9959 47.3734 14.0962Z" fill="black"/>
</svg>
