<svg width="78" height="65" viewBox="0 0 78 65" fill="none" xmlns="http://www.w3.org/2000/svg">
<circle cx="39" cy="22" r="21" stroke="#434343" stroke-width="2"/>
<path d="M6.1123 64.0227C7.94185 64.0227 9.41344 63.1875 9.41344 61.2188V53.3636H8.27992V54.5767H8.1606C7.90208 54.179 7.4248 53.2642 5.93333 53.2642C4.00435 53.2642 2.67196 54.7955 2.67196 57.142C2.67196 59.5284 4.06401 60.8807 5.91344 60.8807C7.40492 60.8807 7.88219 60.0057 8.14071 59.5881H8.24015V61.1392C8.24015 62.4119 7.34526 62.9886 6.1123 62.9886C4.72523 62.9886 4.23802 62.2578 3.9248 61.8352L2.99015 62.4915C3.46742 63.2919 4.40705 64.0227 6.1123 64.0227ZM6.07253 59.8267C4.60094 59.8267 3.84526 58.7131 3.84526 57.1222C3.84526 55.571 4.58105 54.3182 6.07253 54.3182C7.50435 54.3182 8.26003 55.4716 8.26003 57.1222C8.26003 58.8125 7.48446 59.8267 6.07253 59.8267ZM12.7345 50.8182H11.5612V61H12.7345V50.8182ZM19.6959 57.8778C19.6959 59.3097 18.6022 59.9659 17.7272 59.9659C16.7528 59.9659 16.0567 59.25 16.0567 58.1364V53.3636H14.8834V58.2159C14.8834 60.1648 15.9175 61.0994 17.3493 61.0994C18.5028 61.0994 19.2584 60.483 19.6164 59.7074H19.6959V61H20.8692V53.3636H19.6959V57.8778ZM26.3392 53.3636H24.7085V51.5341H23.5352V53.3636H22.3818V54.358H23.5352V59.1307C23.5352 60.4631 24.6091 61.0994 25.6034 61.0994C26.0409 61.0994 26.3193 61.0199 26.4784 60.9602L26.2398 59.9062C26.1404 59.9261 25.9813 59.9659 25.7227 59.9659C25.2057 59.9659 24.7085 59.8068 24.7085 58.8125V54.358H26.3392V53.3636ZM31.2238 61.1591C32.7749 61.1591 33.9085 60.3835 34.2664 59.2301L33.1329 58.9119C32.8346 59.7074 32.1436 60.1051 31.2238 60.1051C29.8467 60.1051 28.8971 59.2152 28.8424 57.5795H34.3857V57.0824C34.3857 54.2386 32.6954 53.2642 31.1045 53.2642C29.0363 53.2642 27.6642 54.8949 27.6642 57.2415C27.6642 59.5881 29.0164 61.1591 31.2238 61.1591ZM28.8424 56.5653C28.922 55.3771 29.7622 54.3182 31.1045 54.3182C32.3772 54.3182 33.1926 55.2727 33.1926 56.5653H28.8424ZM37.3438 56.4062C37.3438 55.0739 38.1691 54.3182 39.2927 54.3182C40.3815 54.3182 41.0427 55.0291 41.0427 56.2273V61H42.216V56.1477C42.216 54.1989 41.1769 53.2642 39.6308 53.2642C38.4774 53.2642 37.7615 53.7812 37.4035 54.5568H37.3041V53.3636H36.1705V61H37.3438V56.4062ZM48.735 56.0881H44.2805V57.1818H48.735V56.0881ZM54.2 53.3636H52.4898V52.5881C52.4898 51.8324 52.808 51.4347 53.5835 51.4347C53.9216 51.4347 54.1205 51.5142 54.2398 51.554L54.5779 50.5398C54.3989 50.4602 54.0409 50.3409 53.4642 50.3409C52.3705 50.3409 51.3165 50.9972 51.3165 52.3097V53.3636H50.0835V54.358H51.3165V61H52.4898V54.358H54.2V53.3636ZM55.8444 61H57.0177V56.1676C57.0177 55.1335 57.833 54.3778 58.9466 54.3778C59.2599 54.3778 59.583 54.4375 59.6626 54.4574V53.2642C59.5283 53.2543 59.2201 53.2443 59.0461 53.2443C58.1313 53.2443 57.3358 53.7614 57.0574 54.517H56.9779V53.3636H55.8444V61ZM64.0226 61.1591C65.5738 61.1591 66.7073 60.3835 67.0653 59.2301L65.9317 58.9119C65.6334 59.7074 64.9424 60.1051 64.0226 60.1051C62.6455 60.1051 61.6959 59.2152 61.6412 57.5795H67.1846V57.0824C67.1846 54.2386 65.4942 53.2642 63.9033 53.2642C61.8351 53.2642 60.463 54.8949 60.463 57.2415C60.463 59.5881 61.8153 61.1591 64.0226 61.1591ZM61.6412 56.5653C61.7208 55.3771 62.561 54.3182 63.9033 54.3182C65.176 54.3182 65.9914 55.2727 65.9914 56.5653H61.6412ZM72.1711 61.1591C73.7222 61.1591 74.8557 60.3835 75.2137 59.2301L74.0802 58.9119C73.7819 59.7074 73.0908 60.1051 72.1711 60.1051C70.7939 60.1051 69.8444 59.2152 69.7897 57.5795H75.333V57.0824C75.333 54.2386 73.6427 53.2642 72.0518 53.2642C69.9836 53.2642 68.6114 54.8949 68.6114 57.2415C68.6114 59.5881 69.9637 61.1591 72.1711 61.1591ZM69.7897 56.5653C69.8692 55.3771 70.7094 54.3182 72.0518 54.3182C73.3245 54.3182 74.1398 55.2727 74.1398 56.5653H69.7897Z" fill="#434343"/>
</svg>
