<svg width="22" height="27" viewBox="0 0 22 27" fill="none" xmlns="http://www.w3.org/2000/svg">
<path d="M11.0001 12.5015C12.1538 12.5015 13.2816 12.1594 14.2409 11.5184C15.2002 10.8774 15.9479 9.9664 16.3894 8.9005C16.8309 7.83459 16.9464 6.6617 16.7213 5.53015C16.4962 4.39859 15.9407 3.35919 15.1249 2.54339C14.3091 1.72758 13.2697 1.17201 12.1381 0.946927C11.0066 0.721847 9.83366 0.837366 8.76776 1.27888C7.70186 1.72039 6.79082 2.46806 6.14984 3.42735C5.50887 4.38664 5.16675 5.51445 5.16675 6.66817C5.16675 8.21527 5.78133 9.699 6.87529 10.793C7.96925 11.8869 9.45298 12.5015 11.0001 12.5015ZM11.0001 2.50151C11.8242 2.50151 12.6298 2.74588 13.315 3.20372C14.0002 3.66156 14.5342 4.3123 14.8496 5.07366C15.1649 5.83502 15.2475 6.6728 15.0867 7.48105C14.9259 8.28931 14.5291 9.03173 13.9464 9.61445C13.3636 10.1972 12.6212 10.594 11.813 10.7548C11.0047 10.9156 10.1669 10.833 9.40557 10.5177C8.64421 10.2023 7.99346 9.66826 7.53562 8.98305C7.07779 8.29785 6.83341 7.49226 6.83341 6.66817C6.83341 5.56311 7.2724 4.5033 8.0538 3.7219C8.8352 2.9405 9.89501 2.50151 11.0001 2.50151V2.50151Z" fill="white"/>
<path d="M21.3917 18.9735C20.0553 17.561 18.4449 16.4359 16.6589 15.667C14.8728 14.898 12.9488 14.5015 11.0042 14.5015C9.05974 14.5015 7.13566 14.898 5.34963 15.667C3.56361 16.4359 1.95316 17.561 0.61675 18.9735C0.32701 19.2829 0.166092 19.6912 0.16675 20.1151V24.4985C0.16675 24.9405 0.342345 25.3644 0.654905 25.677C0.967466 25.9895 1.39139 26.1651 1.83342 26.1651H20.1667C20.6088 26.1651 21.0327 25.9895 21.3453 25.677C21.6578 25.3644 21.8334 24.9405 21.8334 24.4985V20.1151C21.8363 19.6923 21.6785 19.2842 21.3917 18.9735V18.9735ZM20.1667 24.4985H1.83342V20.1068C3.01444 18.8632 4.43616 17.8729 6.01205 17.1962C7.58794 16.5195 9.28504 16.1705 11.0001 16.1705C12.7151 16.1705 14.4122 16.5195 15.9881 17.1962C17.564 17.8729 18.9857 18.8632 20.1667 20.1068V24.4985Z" fill="white"/>
</svg>
