<svg width="38" height="38" viewBox="0 0 38 38" fill="none" xmlns="http://www.w3.org/2000/svg">
<path d="M0.341348 0.553356C-0.0876589 0.765488 -0.0957534 0.919102 0.300876 2.37478C0.972717 4.83992 1.08604 5.82013 0.972717 7.97804C0.883678 9.62391 0.980812 11.694 1.19936 12.8059C1.2965 13.3253 1.35316 13.4569 1.53933 13.5886C1.80645 13.7861 2.04928 13.8008 2.37306 13.6471C2.7535 13.4716 2.7616 13.3472 2.53495 11.5989C2.48638 11.2113 2.45401 9.76289 2.47019 8.08776L2.48638 5.23493L2.25974 4.13769C2.13023 3.53054 2.00881 2.94535 1.99262 2.82831L1.94405 2.62349L2.58352 3.01118C4.18622 3.98407 6.08842 5.34465 7.79636 6.7345C8.35488 7.18802 8.89721 7.58303 9.00243 7.61961C9.4962 7.79517 10.079 7.31238 9.94949 6.84422C9.86854 6.55162 8.40344 5.33002 6.50124 3.95481C5.32754 3.11359 5.32754 3.12091 6.09652 3.37693C10.3218 4.75946 13.6729 6.42727 15.9475 8.27064L16.417 8.6437L15.9313 9.02408C15.6642 9.2289 15.13 9.67511 14.7414 10.0116C14.361 10.3481 14.0048 10.6187 13.9643 10.6041C13.9239 10.5895 13.681 10.3408 13.4139 10.0628C12.3616 8.92167 11.7627 8.35842 11.5522 8.32184C11.0665 8.24138 10.6294 8.57787 10.6294 9.02408C10.6294 9.14844 10.8884 9.47761 11.4227 10.0409C11.8517 10.4944 12.3778 11.0503 12.5883 11.2771L12.9606 11.6794L12.5559 12.1549C11.5765 13.2887 10.6861 14.62 10.0142 15.9733C9.31812 17.3558 8.52486 19.7698 8.3225 21.0865C8.29822 21.284 8.23346 21.4376 8.18489 21.4376C8.13633 21.4376 7.57781 20.9694 6.94644 20.3915C5.61895 19.1846 4.85806 18.2263 4.0729 16.7414C3.80578 16.2293 3.50629 15.7612 3.40106 15.6953C3.02871 15.4612 2.47019 15.6295 2.30831 16.0245C2.20308 16.2732 2.30831 16.5804 2.81826 17.5241C3.89482 19.5064 5.50562 21.2986 7.37545 22.5714L8.12014 23.0834V23.4199C8.12014 25.1024 8.69485 27.231 9.51239 28.5916L9.82807 29.1256L9.46382 30.1277C8.69485 32.2418 8.21727 33.8803 7.74779 35.9578C7.43211 37.3988 7.4402 37.5817 7.8854 37.7865C8.1687 37.9255 8.3144 37.9255 8.59771 37.7865C8.88102 37.6622 8.97006 37.4573 9.13195 36.6161C9.42335 35.1678 10.079 32.8123 10.6051 31.3493C10.767 30.9031 10.9046 30.5301 10.9208 30.5154C10.937 30.5008 11.196 30.691 11.4955 30.9397C14.0129 33.0245 17.6311 33.7121 21.3141 32.805C23.362 32.3003 25.6285 31.225 27.6683 29.8059C28.6558 29.1256 30.3395 27.6333 31.1327 26.7409C31.9826 25.79 32.954 24.444 33.472 23.515C33.8606 22.7982 33.8687 22.7762 33.7553 22.5275C33.6015 22.191 33.4397 22.0813 33.0916 22.0813C32.695 22.0813 32.5574 22.213 31.9907 23.142C31.0842 24.6415 30.0562 25.8997 28.8096 27.0555C26.1142 29.5572 22.6902 31.3201 19.6548 31.759C18.9182 31.8614 17.2912 31.8614 16.6193 31.7517C15.2676 31.5395 13.9563 30.9982 12.9121 30.2521C12.2159 29.7401 11.4874 29.0086 11.5441 28.8696C12.2483 27.2895 12.653 26.4117 13.0497 25.6437L13.5434 24.6927L14.28 24.6708C14.6929 24.6635 15.4294 24.7 15.9151 24.7659C17.194 24.9268 17.5259 24.9122 17.7364 24.7074C17.9954 24.4586 18.0359 24.1514 17.8416 23.8735C17.6554 23.6028 17.3721 23.537 15.9637 23.4126C15.4537 23.3614 14.8871 23.3102 14.6929 23.2956L14.3448 23.259L14.6848 22.6957C15.6399 21.123 17.8011 18.0069 18.0844 17.8093C18.3192 17.6411 19.2339 17.6265 20.8123 17.7728C21.6703 17.8532 22.4312 17.8971 22.5121 17.8752C23.014 17.7143 23.184 17.1583 22.8359 16.7926C22.6254 16.5804 22.3502 16.5292 20.3995 16.3683L19.2824 16.2805L20.1161 15.3223C21.6946 13.5082 22.6902 12.5206 23.0059 12.4402C23.7101 12.2573 25.0133 12.1915 26.0089 12.2866C27.1017 12.3963 27.3769 12.3451 27.5388 12.0305C27.7573 11.5916 27.5064 11.1674 26.9398 11.043C26.7617 11.0064 26.1303 10.9552 25.5394 10.926L24.4629 10.8821L25.6771 9.77021C26.7941 8.76074 26.8993 8.63639 26.8993 8.40231C26.8993 8.03656 26.5755 7.75859 26.1627 7.75859C25.8713 7.75859 25.7661 7.82443 24.8109 8.62907C24.2443 9.11186 23.2163 10.0555 22.5283 10.7285C21.8403 11.4088 21.1037 12.1183 20.9013 12.3158L20.529 12.6816L20.3185 12.3524C20.0514 11.9354 19.5172 11.4892 19.0315 11.2771C18.6915 11.1308 18.6106 11.1235 18.3596 11.1966C18.0844 11.2771 17.8335 11.5697 17.8335 11.8111C17.8335 12.0452 18.0278 12.2792 18.4163 12.506C18.8696 12.7767 19.25 13.2668 19.331 13.6837C19.3796 13.9544 19.3553 13.9983 18.7887 14.6493C18.0521 15.4832 16.6598 17.2095 15.9718 18.1385C15.5266 18.7383 15.4537 18.8115 15.3809 18.6871C15.049 18.1239 14.0534 17.4143 13.6163 17.4143C13.1063 17.4143 12.7745 17.8167 12.9121 18.2775C12.9606 18.4531 13.0982 18.5847 13.4301 18.7822C13.932 19.0822 14.2153 19.4625 14.3529 19.9965L14.4338 20.3476L13.7782 21.3864C13.0092 22.6153 11.5441 25.2926 10.9856 26.4995C10.767 26.975 10.5647 27.3627 10.5404 27.3627C10.4594 27.3627 9.98996 26.0387 9.85236 25.4096C9.67428 24.6123 9.60952 22.7177 9.73094 21.8326C10.0547 19.4406 11.0665 16.7633 12.4264 14.7224C15.5023 10.0921 21.0632 6.69061 30.3395 3.76462C31.1408 3.51591 31.8046 3.3111 31.8127 3.32573C31.8208 3.33304 31.4808 3.57444 31.0437 3.85972C29.6919 4.74483 28.0244 6.01032 27.9435 6.20782C27.7735 6.61746 28.1378 7.10025 28.6153 7.10025C28.8339 7.10025 29.0686 6.96858 29.8133 6.43458C30.3233 6.06884 31.1813 5.46901 31.7155 5.10326C32.8083 4.34982 35.3985 2.76247 35.4552 2.80636C35.4714 2.82831 35.3985 3.19406 35.2852 3.63295C34.6943 5.98106 34.4596 8.07314 34.5891 9.89456C34.8319 13.2814 34.6053 16.0684 33.8687 18.7896C33.6096 19.7332 33.6177 19.9014 33.9091 20.1282C34.1601 20.3257 34.4029 20.355 34.7024 20.2306C35.0262 20.0916 35.0747 19.9965 35.3904 18.8408C36.1189 16.1635 36.2242 14.7371 36.1189 9.11186C36.0946 7.52451 36.1108 7.07099 36.2322 6.36875C36.4427 5.18373 36.726 3.97676 37.1469 2.47719C37.495 1.24828 37.5112 1.17513 37.3898 0.962994C37.2441 0.714283 37.0336 0.589931 36.7665 0.589931C36.5398 0.589931 34.2815 1.17513 32.2012 1.77496C26.4541 3.42813 22.0345 5.2203 18.5296 7.30507L17.6554 7.83174L17.1859 7.44405C14.0696 4.83261 9.4881 2.7771 2.72112 0.948364C1.68503 0.670395 0.770355 0.44363 0.697505 0.44363C0.61656 0.450947 0.454671 0.494835 0.341348 0.553356Z" fill="white"/>
</svg>
