<svg width="38" height="38" viewBox="0 0 38 38" fill="none" xmlns="http://www.w3.org/2000/svg">
<path d="M0.341348 0.553416C-0.0876589 0.76555 -0.0957534 0.919164 0.300876 2.37484C0.972717 4.83998 1.08604 5.82019 0.972717 7.9781C0.883678 9.62397 0.980812 11.6941 1.19936 12.806C1.2965 13.3253 1.35316 13.457 1.53933 13.5887C1.80645 13.7862 2.04928 13.8008 2.37306 13.6472C2.7535 13.4716 2.7616 13.3473 2.53495 11.599C2.48638 11.2113 2.45401 9.76295 2.47019 8.08783L2.48638 5.23499L2.25974 4.13775C2.13023 3.53061 2.00881 2.94541 1.99262 2.82837L1.94405 2.62355L2.58352 3.01124C4.18622 3.98413 6.08842 5.34472 7.79636 6.73456C8.35488 7.18809 8.89721 7.58309 9.00243 7.61967C9.4962 7.79523 10.079 7.31244 9.94949 6.84428C9.86854 6.55168 8.40344 5.33009 6.50124 3.95487C5.32754 3.11365 5.32754 3.12097 6.09652 3.37699C10.3218 4.75952 13.6729 6.42733 15.9475 8.2707L16.417 8.64376L15.9313 9.02414C15.6642 9.22896 15.13 9.67517 14.7414 10.0117C14.361 10.3481 14.0048 10.6188 13.9643 10.6042C13.9239 10.5895 13.681 10.3408 13.4139 10.0629C12.3616 8.92173 11.7627 8.35848 11.5522 8.32191C11.0665 8.24144 10.6294 8.57793 10.6294 9.02414C10.6294 9.1485 10.8884 9.47767 11.4227 10.0409C11.8517 10.4944 12.3778 11.0504 12.5883 11.2771L12.9606 11.6795L12.5559 12.1549C11.5765 13.2888 10.6861 14.6201 10.0142 15.9734C9.31812 17.3559 8.52486 19.7698 8.3225 21.0865C8.29822 21.284 8.23346 21.4376 8.18489 21.4376C8.13633 21.4376 7.57781 20.9695 6.94644 20.3916C5.61894 19.1846 4.85806 18.2264 4.0729 16.7414C3.80578 16.2294 3.50629 15.7612 3.40106 15.6954C3.02871 15.4613 2.47019 15.6296 2.30831 16.0246C2.20308 16.2733 2.30831 16.5805 2.81826 17.5241C3.89482 19.5065 5.50562 21.2986 7.37545 22.5715L8.12014 23.0835V23.42C8.12014 25.1024 8.69484 27.2311 9.51239 28.5917L9.82807 29.1257L9.46382 30.1278C8.69484 32.2418 8.21727 33.8804 7.74779 35.9578C7.43211 37.3989 7.4402 37.5818 7.8854 37.7866C8.1687 37.9256 8.3144 37.9256 8.59771 37.7866C8.88102 37.6622 8.97006 37.4574 9.13195 36.6162C9.42335 35.1678 10.079 32.8124 10.6051 31.3494C10.767 30.9032 10.9046 30.5301 10.9208 30.5155C10.937 30.5009 11.196 30.6911 11.4955 30.9398C14.0129 33.0245 17.6311 33.7121 21.3141 32.8051C23.362 32.3003 25.6285 31.225 27.6683 29.8059C28.6558 29.1257 30.3395 27.6334 31.1327 26.741C31.9826 25.79 32.954 24.4441 33.472 23.5151C33.8606 22.7982 33.8687 22.7763 33.7553 22.5276C33.6015 22.1911 33.4397 22.0813 33.0916 22.0813C32.695 22.0813 32.5574 22.213 31.9907 23.142C31.0842 24.6416 30.0562 25.8998 28.8096 27.0555C26.1142 29.5572 22.6902 31.3201 19.6548 31.759C18.9182 31.8615 17.2912 31.8615 16.6193 31.7517C15.2676 31.5396 13.9563 30.9983 12.9121 30.2522C12.2159 29.7401 11.4874 29.0086 11.5441 28.8696C12.2483 27.2896 12.653 26.4118 13.0497 25.6437L13.5434 24.6928L14.28 24.6708C14.6928 24.6635 15.4294 24.7001 15.9151 24.7659C17.194 24.9269 17.5259 24.9122 17.7364 24.7074C17.9954 24.4587 18.0359 24.1515 17.8416 23.8735C17.6554 23.6029 17.3721 23.537 15.9637 23.4127C15.4537 23.3615 14.8871 23.3103 14.6928 23.2956L14.3448 23.2591L14.6848 22.6958C15.6399 21.1231 17.8011 18.0069 18.0844 17.8094C18.3192 17.6412 19.2339 17.6265 20.8123 17.7728C21.6703 17.8533 22.4312 17.8972 22.5121 17.8752C23.014 17.7143 23.184 17.1584 22.8359 16.7926C22.6254 16.5805 22.3502 16.5293 20.3995 16.3684L19.2824 16.2806L20.1161 15.3223C21.6946 13.5082 22.6902 12.5207 23.0059 12.4402C23.7101 12.2574 25.0133 12.1915 26.0089 12.2866C27.1017 12.3963 27.3769 12.3451 27.5388 12.0306C27.7573 11.5917 27.5064 11.1674 26.9398 11.0431C26.7617 11.0065 26.1303 10.9553 25.5394 10.926L24.4629 10.8821L25.6771 9.77027C26.7941 8.7608 26.8993 8.63645 26.8993 8.40237C26.8993 8.03662 26.5755 7.75865 26.1627 7.75865C25.8713 7.75865 25.7661 7.82449 24.8109 8.62913C24.2443 9.11192 23.2163 10.0556 22.5283 10.7285C21.8403 11.4088 21.1037 12.1184 20.9013 12.3159L20.529 12.6816L20.3185 12.3524C20.0514 11.9355 19.5172 11.4893 19.0315 11.2771C18.6915 11.1309 18.6106 11.1235 18.3596 11.1967C18.0844 11.2771 17.8335 11.5697 17.8335 11.8111C17.8335 12.0452 18.0278 12.2793 18.4163 12.5061C18.8696 12.7767 19.25 13.2668 19.331 13.6838C19.3796 13.9544 19.3553 13.9983 18.7887 14.6493C18.0521 15.4833 16.6598 17.2096 15.9718 18.1386C15.5266 18.7384 15.4537 18.8116 15.3809 18.6872C15.049 18.124 14.0534 17.4144 13.6163 17.4144C13.1063 17.4144 12.7745 17.8167 12.9121 18.2776C12.9606 18.4531 13.0982 18.5848 13.4301 18.7823C13.932 19.0822 14.2153 19.4626 14.3529 19.9966L14.4338 20.3477L13.7782 21.3864C13.0092 22.6153 11.5441 25.2926 10.9856 26.4996C10.767 26.9751 10.5647 27.3627 10.5404 27.3627C10.4594 27.3627 9.98996 26.0387 9.85235 25.4097C9.67428 24.6123 9.60952 22.7177 9.73094 21.8326C10.0547 19.4406 11.0665 16.7634 12.4264 14.7225C15.5023 10.0921 21.0632 6.69067 30.3395 3.76468C31.1408 3.51598 31.8046 3.31116 31.8127 3.32579C31.8208 3.3331 31.4808 3.5745 31.0437 3.85978C29.6919 4.74489 28.0244 6.01038 27.9435 6.20788C27.7735 6.61752 28.1378 7.10031 28.6153 7.10031C28.8339 7.10031 29.0686 6.96864 29.8133 6.43465C30.3233 6.0689 31.1813 5.46907 31.7155 5.10332C32.8083 4.34988 35.3985 2.76253 35.4552 2.80642C35.4714 2.82837 35.3985 3.19412 35.2852 3.63302C34.6943 5.98112 34.4596 8.0732 34.5891 9.89462C34.8319 13.2814 34.6053 16.0684 33.8687 18.7896C33.6096 19.7332 33.6177 19.9015 33.9091 20.1283C34.1601 20.3258 34.4029 20.355 34.7024 20.2307C35.0262 20.0917 35.0747 19.9966 35.3904 18.8408C36.1189 16.1635 36.2242 14.7371 36.1189 9.11192C36.0946 7.52457 36.1108 7.07105 36.2322 6.36881C36.4427 5.18379 36.726 3.97682 37.1469 2.47725C37.495 1.24834 37.5112 1.17519 37.3898 0.963054C37.2441 0.714346 37.0336 0.589991 36.7665 0.589991C36.5398 0.589991 34.2815 1.17519 32.2012 1.77501C26.4541 3.4282 22.0345 5.22036 18.5296 7.30513L17.6554 7.8318L17.1859 7.44411C14.0696 4.83267 9.4881 2.77716 2.72112 0.948424C1.68503 0.670456 0.770355 0.443692 0.697505 0.443692C0.61656 0.451007 0.454671 0.494897 0.341348 0.553416Z" fill="#89B5AF"/>
</svg>
