<svg width="38" height="38" viewBox="0 0 38 38" fill="none" xmlns="http://www.w3.org/2000/svg">
<g clip-path="url(#clip0_676_12928)">
<path d="M12.1867 0.0964853C11.8305 0.230079 11.4519 0.564063 11.2664 0.912892C11.1328 1.16524 11.0957 1.34336 11.0957 1.85547C11.0957 2.41211 11.118 2.52344 11.3035 2.84258C11.4148 3.03555 11.593 3.25078 11.7043 3.31758L11.8898 3.44375L11.8601 4.8168C11.8082 6.89492 11.8156 6.87266 9.67812 9.68555C8.19374 11.6301 7.48866 13.0625 7.03593 15.0516C6.88007 15.7566 6.87265 15.9051 6.85038 21.8648L6.8207 27.9508L6.24921 28.1215C5.61835 28.307 4.49765 28.8043 4.28984 28.9973C4.10429 29.1605 4.11913 29.5762 4.3121 29.7691C4.51991 29.977 4.74999 29.9324 5.61835 29.5465C6.62031 29.1086 7.31054 28.9379 8.3496 28.8934C9.68554 28.834 10.9695 29.1234 12.0234 29.7098C12.6617 30.0734 13.3965 30.8156 13.6711 31.3797C13.8937 31.8324 13.916 31.9363 13.916 32.582C13.916 33.2277 13.8937 33.3316 13.6785 33.777C13.0922 34.9645 11.7043 35.8477 9.9082 36.1816C9.03984 36.3449 7.7039 36.3004 6.88007 36.0777C5.52929 35.7066 4.11913 34.9199 3.24335 34.0293C2.27109 33.0496 2.21171 32.4262 3.00585 31.3277C3.29531 30.9344 3.21366 30.593 2.81288 30.4371C2.53827 30.3332 2.26366 30.4891 1.9371 30.9344C1.11327 32.0254 1.12812 33.1609 1.97421 34.2891C3.07265 35.7438 5.40312 37.0352 7.48866 37.3395C8.98788 37.5547 10.8062 37.2801 12.1422 36.627C12.8324 36.293 13.8789 35.5285 14.0273 35.2539C14.109 35.1055 14.1684 35.1055 17.4266 35.1055H20.7516L21.5828 36.1C22.5625 37.2652 22.8223 37.5102 23.3789 37.7699L23.7871 37.9629L29.5019 37.9852C33.6137 38 35.3059 37.9852 35.5211 37.9184C36.2262 37.7254 36.6789 37.1094 36.6715 36.3449C36.6641 36.0926 36.3375 32.9457 35.9367 29.3535C35.15 22.3918 35.1723 22.4809 34.7195 22.0652C34.4598 21.8203 33.9996 21.6496 33.584 21.6496C33.1535 21.6496 33.25 21.6051 29.4945 23.5719C28.0621 24.3215 26.8746 24.9375 26.8449 24.9375C26.8227 24.9375 26.7855 22.8742 26.7707 20.3582C26.7484 15.9645 26.741 15.7418 26.5852 15.0516C26.1324 13.0699 25.4273 11.6301 23.943 9.68555C21.8055 6.87266 21.8129 6.89492 21.7609 4.8168L21.7312 3.44375L21.9168 3.31758C22.0281 3.25078 22.2062 3.03555 22.3176 2.84258C22.5031 2.52344 22.5254 2.41211 22.5254 1.85547C22.5254 1.35078 22.4883 1.16524 22.3621 0.912892C22.1617 0.541798 21.7609 0.200392 21.3824 0.0816416C20.9742 -0.0371084 12.5281 -0.0222647 12.1867 0.0964853ZM21.2637 1.29883C21.5234 1.55117 21.5234 2.05586 21.2711 2.35274L21.093 2.56055L18.7699 2.58281C16.5137 2.60508 16.4394 2.60508 16.2762 2.76094C15.9941 3.0207 16.0609 3.42149 16.4098 3.59961C16.573 3.68867 17.0109 3.71094 18.6141 3.71094H20.618L20.6477 5.02461C20.707 7.09531 20.8926 7.52578 22.7035 9.87852C24.2992 11.9715 24.8262 12.9066 25.2715 14.4652C25.6574 15.8234 25.6797 16.1648 25.6797 21.041V25.5684L21.991 27.498C19.4898 28.8043 18.2281 29.5094 18.0574 29.6801C17.6121 30.1402 17.4934 30.9121 17.7902 31.4984C17.8496 31.6098 18.332 32.2184 18.859 32.8492L19.8164 33.9922H17.3227C14.9773 33.9922 14.8289 33.9848 14.8809 33.866C15.1406 33.1684 15.1184 31.9141 14.8141 31.1719C14.3836 30.1031 13.4187 29.1531 12.1348 28.5297C11.1476 28.0473 10.2051 27.8246 8.9582 27.7801L7.93398 27.7355L7.96366 21.7906L7.98593 15.8457L8.1789 15.059C8.63906 13.1887 9.26249 12.0234 10.9769 9.79687C12.7211 7.54062 12.9141 7.08047 12.9734 5.03203L13.0031 3.72578L13.634 3.69609C14.2203 3.67383 14.2723 3.65899 14.4504 3.45859C14.584 3.29531 14.6211 3.19883 14.584 3.05039C14.4875 2.64961 14.3836 2.6125 13.4187 2.58281C12.5504 2.56055 12.5281 2.55313 12.35 2.35274C12.0976 2.05586 12.0976 1.55117 12.3574 1.29883L12.5355 1.11328H16.8105H21.0855L21.2637 1.29883ZM34.0738 23.082C34.148 23.3195 35.5508 35.8996 35.5508 36.3375C35.5508 36.9313 35.9367 36.8941 29.5687 36.8719C24.0469 36.8496 23.9281 36.8496 23.6758 36.7012C23.3937 36.5305 19 31.3723 18.7996 30.9641C18.6809 30.7414 18.6809 30.7117 18.8219 30.5336C18.9406 30.3629 23.3641 28.0176 32.4187 23.3047C33.5023 22.7332 33.5617 22.7184 33.7844 22.8074C33.918 22.8594 34.0441 22.9781 34.0738 23.082Z" fill="#89B5AF"/>
<path d="M12.966 18.2875C12.3203 18.5176 11.7785 19.0445 11.5633 19.6531C11.4965 19.8461 11.4668 20.4028 11.4668 21.5235C11.4668 23.0449 11.4742 23.134 11.6449 23.5125C11.7488 23.7426 11.9641 24.032 12.1867 24.2324C12.8176 24.7965 12.8102 24.7965 16.6324 24.7742C20.4695 24.752 20.284 24.7817 20.9223 24.084C21.4715 23.4903 21.4863 23.416 21.4863 21.5235C21.4863 19.9278 21.4789 19.8387 21.3082 19.4676C21.2117 19.2524 20.9891 18.9406 20.8035 18.7699C20.5141 18.5102 20.4398 18.4731 20.2395 18.5102C19.9574 18.5621 19.7422 18.7996 19.7422 19.0445C19.7422 19.141 19.8535 19.3488 20.002 19.5047C20.143 19.6606 20.2914 19.8832 20.3359 19.9945C20.373 20.1059 20.4102 20.7813 20.4102 21.5086C20.4102 22.9856 20.3582 23.2008 19.898 23.5051L19.6457 23.6758H16.484C13.4781 23.6758 13.3074 23.6684 13.0848 23.5274C12.6246 23.2528 12.5801 23.0598 12.5801 21.4863C12.5801 20.2098 12.5949 20.0539 12.7285 19.8238C13.0328 19.3117 13.1219 19.2969 15.6676 19.2969C17.857 19.2969 17.9461 19.2895 18.1391 19.141C18.3914 18.9406 18.4062 18.5695 18.1613 18.3469C17.9906 18.1836 17.9535 18.1836 15.6156 18.1836C13.8195 18.191 13.1812 18.2133 12.966 18.2875Z" fill="#89B5AF"/>
<path d="M27.7726 27.1492C27.2828 27.3274 26.8969 27.6316 26.5926 28.0844C26.2734 28.552 26.1769 28.9453 26.2141 29.5465C26.3031 30.7637 27.1937 31.6172 28.4258 31.6766C29.4129 31.7211 30.2367 31.2461 30.6672 30.3703C30.9121 29.8731 30.9121 28.834 30.6672 28.3664C30.0883 27.2754 28.8637 26.7633 27.7726 27.1492ZM29.0641 28.2699C29.5242 28.4777 29.7246 28.8117 29.7246 29.3684C29.7246 29.7172 29.6875 29.8731 29.5687 30.0363C29.0047 30.7934 28.0101 30.7711 27.4758 29.9844C27.2457 29.643 27.268 29.0195 27.5351 28.6559C27.7281 28.3813 28.2031 28.1289 28.5371 28.1289C28.6633 28.1289 28.8933 28.1957 29.0641 28.2699Z" fill="#89B5AF"/>
<path d="M24.9301 30.8973C24.4848 31.068 24.2176 31.298 24.0172 31.7063C23.4457 32.8418 24.2028 34.0664 25.4719 34.0664C26.4071 34.059 27.0899 33.3539 27.0899 32.3965C27.0825 31.8547 26.6891 31.2387 26.177 30.9715C25.8727 30.8156 25.2493 30.7785 24.9301 30.8973ZM25.7836 32.0699C26.177 32.3742 25.9395 32.9531 25.4274 32.9531C24.9524 32.9531 24.7594 32.3668 25.1305 32.0699C25.2418 31.9809 25.3828 31.9141 25.4571 31.9141C25.5313 31.9141 25.6723 31.9809 25.7836 32.0699Z" fill="#89B5AF"/>
<path d="M30.4668 33.2426C29.9027 33.5023 29.4648 34.1629 29.4648 34.7344C29.4648 35.0683 29.6801 35.573 29.9324 35.8402C30.9641 36.9238 32.7453 36.2262 32.7453 34.7344C32.7453 33.5469 31.5281 32.7527 30.4668 33.2426ZM31.4539 34.3336C31.5727 34.4152 31.6172 34.5191 31.6172 34.7344C31.6172 35.0609 31.4242 35.2539 31.0902 35.2539C30.8676 35.2539 30.5781 34.957 30.5781 34.7344C30.5781 34.6601 30.6449 34.5191 30.734 34.4078C30.9121 34.1851 31.2016 34.1555 31.4539 34.3336Z" fill="#89B5AF"/>
</g>
<defs>
<clipPath id="clip0_676_12928">
<rect width="38" height="38" fill="white"/>
</clipPath>
</defs>
</svg>
