<svg width="36" height="38" viewBox="0 0 36 38" fill="none" xmlns="http://www.w3.org/2000/svg">
<path d="M11.1867 0.0964853C10.8305 0.230079 10.4519 0.564063 10.2664 0.912892C10.1328 1.16524 10.0957 1.34336 10.0957 1.85547C10.0957 2.41211 10.118 2.52344 10.3035 2.84258C10.4148 3.03555 10.593 3.25078 10.7043 3.31758L10.8898 3.44375L10.8601 4.8168C10.8082 6.89492 10.8156 6.87266 8.67812 9.68555C7.19374 11.6301 6.48866 13.0625 6.03593 15.0516C5.88007 15.7566 5.87265 15.9051 5.85038 21.8648L5.8207 27.9508L5.24921 28.1215C4.61835 28.307 3.49765 28.8043 3.28984 28.9973C3.10429 29.1605 3.11913 29.5762 3.3121 29.7691C3.51991 29.977 3.74999 29.9324 4.61835 29.5465C5.62031 29.1086 6.31054 28.9379 7.3496 28.8934C8.68554 28.834 9.96952 29.1234 11.0234 29.7098C11.6617 30.0734 12.3965 30.8156 12.6711 31.3797C12.8937 31.8324 12.916 31.9363 12.916 32.582C12.916 33.2277 12.8937 33.3316 12.6785 33.777C12.0922 34.9645 10.7043 35.8477 8.9082 36.1816C8.03984 36.3449 6.7039 36.3004 5.88007 36.0777C4.52929 35.7066 3.11913 34.9199 2.24335 34.0293C1.27109 33.0496 1.21171 32.4262 2.00585 31.3277C2.29531 30.9344 2.21366 30.593 1.81288 30.4371C1.53827 30.3332 1.26366 30.4891 0.937102 30.9344C0.113274 32.0254 0.128118 33.1609 0.974212 34.2891C2.07265 35.7438 4.40312 37.0352 6.48866 37.3395C7.98788 37.5547 9.80624 37.2801 11.1422 36.627C11.8324 36.293 12.8789 35.5285 13.0273 35.2539C13.109 35.1055 13.1684 35.1055 16.4266 35.1055H19.7516L20.5828 36.1C21.5625 37.2652 21.8223 37.5102 22.3789 37.7699L22.7871 37.9629L28.5019 37.9852C32.6137 38 34.3059 37.9852 34.5211 37.9184C35.2262 37.7254 35.6789 37.1094 35.6715 36.3449C35.6641 36.0926 35.3375 32.9457 34.9367 29.3535C34.15 22.3918 34.1723 22.4809 33.7195 22.0652C33.4598 21.8203 32.9996 21.6496 32.584 21.6496C32.1535 21.6496 32.25 21.6051 28.4945 23.5719C27.0621 24.3215 25.8746 24.9375 25.8449 24.9375C25.8227 24.9375 25.7855 22.8742 25.7707 20.3582C25.7484 15.9645 25.741 15.7418 25.5852 15.0516C25.1324 13.0699 24.4273 11.6301 22.943 9.68555C20.8055 6.87266 20.8129 6.89492 20.7609 4.8168L20.7312 3.44375L20.9168 3.31758C21.0281 3.25078 21.2062 3.03555 21.3176 2.84258C21.5031 2.52344 21.5254 2.41211 21.5254 1.85547C21.5254 1.35078 21.4883 1.16524 21.3621 0.912892C21.1617 0.541798 20.7609 0.200392 20.3824 0.0816416C19.9742 -0.0371084 11.5281 -0.0222647 11.1867 0.0964853ZM20.2637 1.29883C20.5234 1.55117 20.5234 2.05586 20.2711 2.35274L20.093 2.56055L17.7699 2.58281C15.5137 2.60508 15.4394 2.60508 15.2762 2.76094C14.9941 3.0207 15.0609 3.42149 15.4098 3.59961C15.573 3.68867 16.0109 3.71094 17.6141 3.71094H19.618L19.6477 5.02461C19.707 7.09531 19.8926 7.52578 21.7035 9.87852C23.2992 11.9715 23.8262 12.9066 24.2715 14.4652C24.6574 15.8234 24.6797 16.1648 24.6797 21.041V25.5684L20.991 27.498C18.4898 28.8043 17.2281 29.5094 17.0574 29.6801C16.6121 30.1402 16.4934 30.9121 16.7902 31.4984C16.8496 31.6098 17.332 32.2184 17.859 32.8492L18.8164 33.9922H16.3227C13.9773 33.9922 13.8289 33.9848 13.8809 33.866C14.1406 33.1684 14.1184 31.9141 13.8141 31.1719C13.3836 30.1031 12.4187 29.1531 11.1348 28.5297C10.1476 28.0473 9.20507 27.8246 7.9582 27.7801L6.93398 27.7355L6.96366 21.7906L6.98593 15.8457L7.1789 15.059C7.63906 13.1887 8.26249 12.0234 9.97695 9.79687C11.7211 7.54062 11.9141 7.08047 11.9734 5.03203L12.0031 3.72578L12.634 3.69609C13.2203 3.67383 13.2723 3.65899 13.4504 3.45859C13.584 3.29531 13.6211 3.19883 13.584 3.05039C13.4875 2.64961 13.3836 2.6125 12.4187 2.58281C11.5504 2.56055 11.5281 2.55313 11.35 2.35274C11.0976 2.05586 11.0976 1.55117 11.3574 1.29883L11.5355 1.11328H15.8105H20.0855L20.2637 1.29883ZM33.0738 23.082C33.148 23.3195 34.5508 35.8996 34.5508 36.3375C34.5508 36.9313 34.9367 36.8941 28.5687 36.8719C23.0469 36.8496 22.9281 36.8496 22.6758 36.7012C22.3937 36.5305 18 31.3723 17.7996 30.9641C17.6809 30.7414 17.6809 30.7117 17.8219 30.5336C17.9406 30.3629 22.3641 28.0176 31.4187 23.3047C32.5023 22.7332 32.5617 22.7184 32.7844 22.8074C32.918 22.8594 33.0441 22.9781 33.0738 23.082Z" fill="black"/>
<path d="M11.966 18.2875C11.3203 18.5176 10.7785 19.0445 10.5633 19.6531C10.4965 19.8461 10.4668 20.4028 10.4668 21.5235C10.4668 23.0449 10.4742 23.134 10.6449 23.5125C10.7488 23.7426 10.9641 24.032 11.1867 24.2324C11.8176 24.7965 11.8102 24.7965 15.6324 24.7742C19.4695 24.752 19.284 24.7817 19.9223 24.084C20.4715 23.4903 20.4863 23.416 20.4863 21.5235C20.4863 19.9278 20.4789 19.8387 20.3082 19.4676C20.2117 19.2524 19.9891 18.9406 19.8035 18.7699C19.5141 18.5102 19.4398 18.4731 19.2395 18.5102C18.9574 18.5621 18.7422 18.7996 18.7422 19.0445C18.7422 19.141 18.8535 19.3488 19.002 19.5047C19.143 19.6606 19.2914 19.8832 19.3359 19.9945C19.373 20.1059 19.4102 20.7813 19.4102 21.5086C19.4102 22.9856 19.3582 23.2008 18.898 23.5051L18.6457 23.6758H15.484C12.4781 23.6758 12.3074 23.6684 12.0848 23.5274C11.6246 23.2528 11.5801 23.0598 11.5801 21.4863C11.5801 20.2098 11.5949 20.0539 11.7285 19.8238C12.0328 19.3117 12.1219 19.2969 14.6676 19.2969C16.857 19.2969 16.9461 19.2895 17.1391 19.141C17.3914 18.9406 17.4062 18.5695 17.1613 18.3469C16.9906 18.1836 16.9535 18.1836 14.6156 18.1836C12.8195 18.191 12.1812 18.2133 11.966 18.2875Z" fill="black"/>
<path d="M26.7726 27.1492C26.2828 27.3274 25.8969 27.6316 25.5926 28.0844C25.2734 28.552 25.1769 28.9453 25.2141 29.5465C25.3031 30.7637 26.1937 31.6172 27.4258 31.6766C28.4129 31.7211 29.2367 31.2461 29.6672 30.3703C29.9121 29.8731 29.9121 28.834 29.6672 28.3664C29.0883 27.2754 27.8637 26.7633 26.7726 27.1492ZM28.0641 28.2699C28.5242 28.4777 28.7246 28.8117 28.7246 29.3684C28.7246 29.7172 28.6875 29.8731 28.5687 30.0363C28.0047 30.7934 27.0101 30.7711 26.4758 29.9844C26.2457 29.643 26.268 29.0195 26.5351 28.6559C26.7281 28.3813 27.2031 28.1289 27.5371 28.1289C27.6633 28.1289 27.8933 28.1957 28.0641 28.2699Z" fill="black"/>
<path d="M23.9301 30.8973C23.4848 31.068 23.2176 31.298 23.0172 31.7063C22.4457 32.8418 23.2028 34.0664 24.4719 34.0664C25.4071 34.059 26.0899 33.3539 26.0899 32.3965C26.0825 31.8547 25.6891 31.2387 25.177 30.9715C24.8727 30.8156 24.2493 30.7785 23.9301 30.8973ZM24.7836 32.0699C25.177 32.3742 24.9395 32.9531 24.4274 32.9531C23.9524 32.9531 23.7594 32.3668 24.1305 32.0699C24.2418 31.9809 24.3828 31.9141 24.4571 31.9141C24.5313 31.9141 24.6723 31.9809 24.7836 32.0699Z" fill="black"/>
<path d="M29.4668 33.2426C28.9027 33.5023 28.4648 34.1629 28.4648 34.7344C28.4648 35.0683 28.6801 35.573 28.9324 35.8402C29.9641 36.9238 31.7453 36.2262 31.7453 34.7344C31.7453 33.5469 30.5281 32.7527 29.4668 33.2426ZM30.4539 34.3336C30.5727 34.4152 30.6172 34.5191 30.6172 34.7344C30.6172 35.0609 30.4242 35.2539 30.0902 35.2539C29.8676 35.2539 29.5781 34.957 29.5781 34.7344C29.5781 34.6601 29.6449 34.5191 29.734 34.4078C29.9121 34.1851 30.2016 34.1555 30.4539 34.3336Z" fill="black"/>
</svg>
