<svg width="66" height="66" viewBox="0 0 66 66" fill="none" xmlns="http://www.w3.org/2000/svg">
<g filter="url(#filter0_d_597_29129)">
<circle cx="33" cy="29" r="21" fill="white"/>
</g>
<path d="M40 28H28.14L31.77 23.64C31.9397 23.4358 32.0214 23.1725 31.997 22.9081C31.9726 22.6437 31.8442 22.3997 31.64 22.23C31.4358 22.0603 31.1725 21.9786 30.9081 22.003C30.6437 22.0274 30.3997 22.1558 30.23 22.36L25.23 28.36C25.1964 28.4077 25.1663 28.4579 25.14 28.51C25.14 28.56 25.14 28.59 25.07 28.64C25.0247 28.7547 25.0009 28.8767 25 29C25.0009 29.1233 25.0247 29.2453 25.07 29.36C25.07 29.41 25.07 29.44 25.14 29.49C25.1663 29.5421 25.1964 29.5923 25.23 29.64L30.23 35.64C30.324 35.7529 30.4418 35.8437 30.5748 35.9059C30.7079 35.9681 30.8531 36.0002 31 36C31.2337 36.0005 31.4601 35.9191 31.64 35.77C31.7413 35.6861 31.825 35.583 31.8863 35.4666C31.9477 35.3503 31.9855 35.2229 31.9975 35.092C32.0096 34.961 31.9957 34.8289 31.9567 34.7033C31.9176 34.5777 31.8542 34.4611 31.77 34.36L28.14 30H40C40.2652 30 40.5196 29.8946 40.7071 29.7071C40.8946 29.5196 41 29.2652 41 29C41 28.7348 40.8946 28.4804 40.7071 28.2929C40.5196 28.1054 40.2652 28 40 28Z" fill="#808080"/>
<defs>
<filter id="filter0_d_597_29129" x="0" y="0" width="66" height="66" filterUnits="userSpaceOnUse" color-interpolation-filters="sRGB">
<feFlood flood-opacity="0" result="BackgroundImageFix"/>
<feColorMatrix in="SourceAlpha" type="matrix" values="0 0 0 0 0 0 0 0 0 0 0 0 0 0 0 0 0 0 127 0" result="hardAlpha"/>
<feOffset dy="4"/>
<feGaussianBlur stdDeviation="6"/>
<feComposite in2="hardAlpha" operator="out"/>
<feColorMatrix type="matrix" values="0 0 0 0 0.354167 0 0 0 0 0.354167 0 0 0 0 0.354167 0 0 0 0.17 0"/>
<feBlend mode="normal" in2="BackgroundImageFix" result="effect1_dropShadow_597_29129"/>
<feBlend mode="normal" in="SourceGraphic" in2="effect1_dropShadow_597_29129" result="shape"/>
</filter>
</defs>
</svg>
