<svg width="50" height="59" viewBox="0 0 50 59" fill="none" xmlns="http://www.w3.org/2000/svg">
<path d="M17.9844 17H36.0469C36.2582 17 36.4609 17.084 36.6104 17.2334C36.7598 17.3828 36.8438 17.5855 36.8438 17.7969V39.0469C36.8438 39.2582 36.7598 39.4609 36.6104 39.6104C36.4609 39.7598 36.2582 39.8438 36.0469 39.8438H17.9844C17.3506 39.8445 16.7429 40.0965 16.2947 40.5447C15.8465 40.9929 15.5945 41.6006 15.5938 42.2344V42.5H33.9219C34.1332 42.5 34.3359 42.584 34.4854 42.7334C34.6348 42.8828 34.7188 43.0855 34.7188 43.2969C34.7188 43.5082 34.6348 43.7109 34.4854 43.8604C34.3359 44.0098 34.1332 44.0938 33.9219 44.0938H14.7969C14.5855 44.0938 14.3828 44.0098 14.2334 43.8604C14.084 43.7109 14 43.5082 14 43.2969V20.9844C14.0012 19.928 14.4214 18.9153 15.1683 18.1683C15.9153 17.4214 16.928 17.0012 17.9844 17Z" fill="white"/>
<path d="M31 18.5938H24.0938H22.5H17.9844C17.3506 18.5945 16.7429 18.8465 16.2947 19.2947C15.8465 19.7429 15.5945 20.3506 15.5938 20.9844V39.0489C16.2825 38.5296 17.1218 38.2491 17.9844 38.25H35.25L35.2501 18.5938H32.5939H31Z" fill="#5DB0A6"/>
<path d="M30 26.478C30 27.2512 29.7031 27.9939 29.1729 28.5433C27.9524 29.8084 26.7687 31.1275 25.5027 32.3467C25.2124 32.6221 24.7521 32.6121 24.4744 32.3242L20.8269 28.5433C19.7244 27.4005 19.7244 25.5555 20.8269 24.4127C21.9402 23.2586 23.754 23.2586 24.8673 24.4127L24.9999 24.5501L25.1324 24.4127C25.6662 23.8591 26.3932 23.5469 27.1527 23.5469C27.9121 23.5469 28.6391 23.8591 29.1729 24.4127C29.7031 24.9621 30 25.7048 30 26.478Z" stroke="white" stroke-width="1.3" stroke-linejoin="round"/>
</svg>
