<svg width="86" height="86" viewBox="0 0 86 86" fill="none" xmlns="http://www.w3.org/2000/svg">
<g filter="url(#filter0_d_578_12436)">
<circle cx="43" cy="39" r="31" fill="white"/>
</g>
<path d="M53 35.8622C53 37.4087 52.3766 38.8941 51.2631 39.9929C48.7001 42.523 46.2143 45.1613 43.5556 47.5997C42.9461 48.1505 41.9794 48.1304 41.3962 47.5547L33.7364 39.9929C31.4212 37.7072 31.4212 34.0172 33.7364 31.7316C36.0745 29.4235 39.8833 29.4235 42.2214 31.7316L42.4998 32.0064L42.778 31.7317C43.899 30.6245 45.4257 30 47.0206 30C48.6154 30 50.142 30.6244 51.2631 31.7316C52.3766 32.8304 53 34.3158 53 35.8622Z" fill="#5DB0A6"/>
<defs>
<filter id="filter0_d_578_12436" x="0" y="0" width="86" height="86" filterUnits="userSpaceOnUse" color-interpolation-filters="sRGB">
<feFlood flood-opacity="0" result="BackgroundImageFix"/>
<feColorMatrix in="SourceAlpha" type="matrix" values="0 0 0 0 0 0 0 0 0 0 0 0 0 0 0 0 0 0 127 0" result="hardAlpha"/>
<feOffset dy="4"/>
<feGaussianBlur stdDeviation="6"/>
<feComposite in2="hardAlpha" operator="out"/>
<feColorMatrix type="matrix" values="0 0 0 0 0.354167 0 0 0 0 0.354167 0 0 0 0 0.354167 0 0 0 0.17 0"/>
<feBlend mode="normal" in2="BackgroundImageFix" result="effect1_dropShadow_578_12436"/>
<feBlend mode="normal" in="SourceGraphic" in2="effect1_dropShadow_578_12436" result="shape"/>
</filter>
</defs>
</svg>
