<svg width="22" height="23" viewBox="0 0 22 23" fill="none" xmlns="http://www.w3.org/2000/svg">
<path d="M1 9.79609C1 8.79506 1.4993 7.85998 2.33115 7.30312L11 1.5L19.6689 7.30312C20.5007 7.85998 21 8.79506 21 9.79609V19C21 20.3807 19.8807 21.5 18.5 21.5H15C14.4477 21.5 14 21.0523 14 20.5V15.1818C14 14.9057 13.7761 14.6818 13.5 14.6818H8.5C8.22386 14.6818 8 14.9057 8 15.1818V20.5C8 21.0523 7.55228 21.5 7 21.5H3.5C2.11929 21.5 1 20.3807 1 19V9.79609Z" fill="white" stroke="white" stroke-width="2" stroke-linecap="round" stroke-linejoin="round"/>
</svg>
