<svg width="34" height="34" viewBox="0 0 34 34" fill="none" xmlns="http://www.w3.org/2000/svg">
<circle cx="17" cy="17" r="17" fill="#333333" fill-opacity="0.5"/>
<path d="M13.0408 15.8483L15.822 15.8266H18.734L21.508 15.8483L24.282 15.8701L24.5579 16.0441C24.7104 16.1384 24.921 16.3487 25.0299 16.5083C25.1897 16.7549 25.226 16.8854 25.226 17.2771C25.226 17.85 25.0444 18.2054 24.5869 18.5027L24.2892 18.6986L21.5152 18.7203L18.734 18.7421H15.8148L13.0408 18.7203L10.2668 18.6986L9.99083 18.5245C9.83834 18.4302 9.62775 18.2199 9.51882 18.0603C9.35906 17.8137 9.32275 17.6832 9.32275 17.2916C9.32275 16.7186 9.5043 16.3632 9.96179 16.0659L10.2595 15.8701L13.0408 15.8483Z" fill="#BDBDBD"/>
</svg>
