<svg width="25" height="24" viewBox="0 0 25 24" fill="none" xmlns="http://www.w3.org/2000/svg">
<path d="M0.623357 0.0515518C0.383497 0.118975 0.188262 0.29315 0.0878557 0.529129C-0.0292852 0.79882 -0.0292852 22.7674 0.0878557 23.0371C0.188262 23.2787 0.383497 23.4472 0.651248 23.5203C0.969202 23.6046 24.0404 23.6046 24.3583 23.5203C24.4811 23.4866 24.6428 23.4023 24.7153 23.3405C25.0166 23.0652 24.9998 23.7226 24.9998 11.8V0.748253L24.8827 0.512274C24.8158 0.366192 24.6819 0.214491 24.5647 0.141449L24.3583 0.0122223L12.5885 0.000984192C4.91295 -0.00463295 0.751655 0.0122223 0.623357 0.0515518ZM23.2148 6.33311V10.8841H12.5048H1.79477V6.33311V1.78207H12.5048H23.2148V6.33311ZM23.2148 17.2331V21.7842H12.5048H1.79477V17.2331V12.6821H12.5048H23.2148V17.2331Z" fill="white"/>
<path d="M7.59629 4.65318C7.3397 4.75431 7.15562 4.99029 7.08868 5.28808C7.05521 5.46225 7.0329 5.95669 7.04964 6.55787C7.06637 7.46808 7.07753 7.55798 7.19467 7.74901C7.3397 7.98499 7.70786 8.18726 7.99234 8.18726C8.25451 8.18726 8.54458 8.02994 8.69519 7.79958C8.80675 7.63102 8.82349 7.54112 8.82349 7.00174V6.38932H12.4493H16.0751V6.93432C16.0806 7.64787 16.1866 7.91756 16.5325 8.07488C17.0234 8.29963 17.5589 8.14231 17.7485 7.72653C17.8433 7.51303 17.8601 7.35571 17.8601 6.38932C17.8601 5.08019 17.8043 4.88916 17.4027 4.70375C17.1684 4.59699 17.001 4.59138 12.4493 4.59699C9.46497 4.59699 7.68554 4.61947 7.59629 4.65318Z" fill="white"/>
<path d="M7.56815 14.2618C7.33387 14.3686 7.1721 14.5652 7.09959 14.8293C7.02149 15.1215 7.02149 16.8745 7.09959 17.1947C7.2502 17.7847 7.97535 18.0488 8.4997 17.7004C8.75072 17.5318 8.82323 17.2959 8.82323 16.6048V15.9811H12.449H16.0748V16.5711C16.0748 16.9475 16.1027 17.2284 16.1529 17.3464C16.443 18.0375 17.4917 18.0375 17.7817 17.3464C17.8375 17.2116 17.8598 16.8689 17.8598 16.0261C17.8598 15.0203 17.8431 14.8574 17.7483 14.6439C17.6646 14.4585 17.5865 14.3798 17.4024 14.2956C17.1681 14.1888 17.0008 14.1832 12.449 14.1888C8.64473 14.1888 7.70203 14.2 7.56815 14.2618Z" fill="white"/>
</svg>
