<svg width="21" height="20" viewBox="0 0 21 20" fill="none" xmlns="http://www.w3.org/2000/svg">
<path d="M0.515651 0.0561161C0.426591 0.0799255 0.300031 0.146592 0.239094 0.203735C-0.00465078 0.432308 3.66204e-05 0.322783 3.66204e-05 4.52281C3.66204e-05 8.79426 -0.00933819 8.61807 0.271906 8.91807C0.342217 8.99426 0.478152 9.09426 0.5719 9.14664C0.745334 9.23712 0.97033 9.23712 10.5373 9.22759L20.3246 9.21331L20.5215 9.07998C20.6293 9.00855 20.7746 8.86093 20.8449 8.7514L20.9762 8.5514L20.9902 4.64662C20.9996 2.49422 20.9902 0.665643 20.9762 0.579928C20.934 0.346594 20.709 0.113259 20.4652 0.0513535C20.1887 -0.0200748 0.759396 -0.0153131 0.515651 0.0561161ZM14.6154 3.99899C14.9529 4.15614 14.9997 4.31804 14.9997 5.42757C14.9997 6.24663 14.9857 6.37996 14.906 6.56091C14.7466 6.9133 14.2966 7.04663 13.8841 6.85615C13.5935 6.72282 13.5045 6.49425 13.4998 5.88948V5.42757H10.453H7.40614V5.94662C7.40614 6.40377 7.39207 6.47996 7.29833 6.62282C7.04052 7.01806 6.42647 7.06092 6.10773 6.70853C5.94835 6.52758 5.90617 6.26567 5.90617 5.42757C5.90617 4.58947 5.94835 4.32757 6.10773 4.14661C6.32803 3.89899 6.20616 3.90852 10.453 3.90852C14.2779 3.90376 14.4185 3.90852 14.6154 3.99899Z" fill="white"/>
<path d="M0.539058 10.8511C0.314063 10.9559 0.168753 11.1083 0.0703175 11.3416C0.00938124 11.4988 6.42991e-06 12.0083 6.42991e-06 15.4512C6.42991e-06 19.6798 -0.00468097 19.5655 0.239064 19.794C0.3 19.8464 0.435935 19.9179 0.539058 19.9464C0.80624 20.0179 20.1934 20.0179 20.4605 19.9464C20.5637 19.9179 20.6996 19.8464 20.7605 19.794C21.0043 19.5655 20.9996 19.6798 20.9996 15.4416C20.9996 11.7083 20.9949 11.4892 20.9105 11.3083C20.8074 11.0797 20.6574 10.9321 20.4277 10.8321C20.273 10.7702 19.1949 10.7607 10.4904 10.7607C1.09686 10.7607 0.71718 10.7654 0.539058 10.8511ZM14.6153 13.1416C14.77 13.2131 14.8356 13.2797 14.906 13.4369C14.9856 13.6178 14.9997 13.7559 14.9997 14.6083C14.9997 15.3226 14.981 15.6131 14.9341 15.7274C14.6903 16.3131 13.8091 16.3131 13.5654 15.7274C13.5232 15.6274 13.4997 15.3893 13.4997 15.0702V14.5702H10.4529H7.40611V15.0988C7.40611 15.4845 7.38736 15.6702 7.33111 15.7893C7.10143 16.2797 6.30457 16.2893 6.02332 15.8083C5.93895 15.6607 5.92958 15.5416 5.91551 14.7607C5.90145 14.2178 5.91551 13.7845 5.94833 13.6369C6.00457 13.3845 6.15926 13.1845 6.37488 13.0988C6.44988 13.0702 7.94516 13.0512 10.4529 13.0512C14.2778 13.0464 14.4185 13.0512 14.6153 13.1416Z" fill="white"/>
</svg>
