<svg width="46" height="45" viewBox="0 0 46 45" fill="none" xmlns="http://www.w3.org/2000/svg">
<path d="M21.3442 10.7913C21.7442 9.73625 23.2579 9.73625 23.6592 10.7913L26.2467 17.9587C26.4279 18.4337 26.8892 18.75 27.4042 18.75H33.7629C34.9379 18.75 35.4504 20.2125 34.5267 20.9288L30.0017 25C29.799 25.1558 29.6509 25.3718 29.5785 25.6171C29.5062 25.8623 29.5135 26.1241 29.5992 26.365L31.2517 33.3687C31.6542 34.4937 30.3517 35.46 29.3667 34.7675L23.2204 30.8675C23.0099 30.7196 22.7589 30.6402 22.5017 30.6402C22.2444 30.6402 21.9934 30.7196 21.7829 30.8675L15.6367 34.7675C14.6529 35.46 13.3492 34.4925 13.7517 33.3687L15.4042 26.365C15.4899 26.1241 15.4971 25.8623 15.4248 25.6171C15.3525 25.3718 15.2044 25.1558 15.0017 25L10.4767 20.9288C9.55168 20.2125 10.0667 18.75 11.2392 18.75H17.5979C17.8483 18.7508 18.093 18.6756 18.2997 18.5343C18.5064 18.393 18.6653 18.1923 18.7554 17.9587L21.3429 10.7913H21.3442Z" stroke="white" stroke-width="2" stroke-linecap="round" stroke-linejoin="round"/>
</svg>
