<svg width="45" height="45" viewBox="0 0 45 45" fill="none" xmlns="http://www.w3.org/2000/svg">
<path d="M21.3432 10.7912C21.7432 9.73625 23.257 9.73625 23.6582 10.7912L26.2457 17.9587C26.427 18.4337 26.8882 18.75 27.4032 18.75H33.762C34.937 18.75 35.4495 20.2125 34.5257 20.9288L30.0007 25C29.798 25.1558 29.6499 25.3718 29.5776 25.6171C29.5053 25.8623 29.5125 26.1241 29.5982 26.365L31.2507 33.3687C31.6532 34.4937 30.3507 35.46 29.3657 34.7675L23.2195 30.8675C23.009 30.7196 22.758 30.6402 22.5007 30.6402C22.2434 30.6402 21.9924 30.7196 21.782 30.8675L15.6357 34.7675C14.652 35.46 13.3482 34.4925 13.7507 33.3687L15.4032 26.365C15.4889 26.1241 15.4962 25.8623 15.4238 25.6171C15.3515 25.3718 15.2034 25.1558 15.0007 25L10.4757 20.9288C9.55071 20.2125 10.0657 18.75 11.2382 18.75H17.597C17.8473 18.7508 18.092 18.6756 18.2987 18.5343C18.5054 18.3931 18.6643 18.1923 18.7545 17.9587L21.342 10.7912H21.3432Z" fill="#F6EABE"/>
</svg>
