<svg width="22" height="27" viewBox="0 0 22 27" fill="none" xmlns="http://www.w3.org/2000/svg">
<ellipse cx="11" cy="6.5" rx="5" ry="4.5" fill="white"/>
<path d="M21 25H1V19.2311C1 18.7067 6 15.5601 11 15.0356C15 14.6161 19.3333 18.0074 21 19.7556V25Z" fill="white"/>
<path d="M11.0003 12.5016C12.154 12.5016 13.2819 12.1595 14.2412 11.5185C15.2004 10.8776 15.9481 9.96652 16.3896 8.90062C16.8311 7.83471 16.9467 6.66183 16.7216 5.53027C16.4965 4.39871 15.9409 3.35931 15.1251 2.54351C14.3093 1.7277 13.2699 1.17213 12.1384 0.947049C11.0068 0.721969 9.83391 0.837488 8.768 1.279C7.7021 1.72051 6.79106 2.46818 6.15009 3.42747C5.50911 4.38676 5.16699 5.51457 5.16699 6.6683C5.16699 8.21539 5.78157 9.69912 6.87554 10.7931C7.9695 11.887 9.45323 12.5016 11.0003 12.5016ZM11.0003 2.50163C11.8244 2.50163 12.63 2.746 13.3152 3.20384C14.0004 3.66168 14.5345 4.31242 14.8498 5.07378C15.1652 5.83514 15.2477 6.67292 15.0869 7.48117C14.9262 8.28943 14.5293 9.03186 13.9466 9.61458C13.3639 10.1973 12.6215 10.5941 11.8132 10.7549C11.0049 10.9157 10.1672 10.8332 9.40581 10.5178C8.64445 10.2024 7.99371 9.66838 7.53587 8.98317C7.07803 8.29797 6.83366 7.49239 6.83366 6.6683C6.83366 5.56323 7.27265 4.50342 8.05405 3.72202C8.83545 2.94062 9.89526 2.50163 11.0003 2.50163V2.50163Z" fill="white"/>
<path d="M21.392 18.9735C20.0556 17.561 18.4451 16.4359 16.6591 15.667C14.8731 14.898 12.949 14.5015 11.0045 14.5015C9.05998 14.5015 7.1359 14.898 5.34988 15.667C3.56385 16.4359 1.9534 17.561 0.616994 18.9735C0.327255 19.2829 0.166336 19.6912 0.166994 20.1151V24.4985C0.166994 24.9405 0.342589 25.3644 0.655149 25.677C0.96771 25.9895 1.39163 26.1651 1.83366 26.1651H20.167C20.609 26.1651 21.0329 25.9895 21.3455 25.677C21.6581 25.3644 21.8337 24.9405 21.8337 24.4985V20.1151C21.8366 19.6923 21.6787 19.2842 21.392 18.9735V18.9735ZM20.167 24.4985H1.83366V20.1068C3.01468 18.8632 4.4364 17.8729 6.01229 17.1962C7.58818 16.5195 9.28529 16.1705 11.0003 16.1705C12.7154 16.1705 14.4125 16.5195 15.9884 17.1962C17.5643 17.8729 18.986 18.8632 20.167 20.1068V24.4985Z" fill="white"/>
</svg>
