<svg width="50" height="59" viewBox="0 0 50 59" fill="none" xmlns="http://www.w3.org/2000/svg">
<path d="M25.0001 28.5015C26.1538 28.5015 27.2816 28.1594 28.2409 27.5184C29.2002 26.8774 29.9479 25.9664 30.3894 24.9005C30.8309 23.8346 30.9464 22.6617 30.7213 21.5301C30.4962 20.3986 29.9407 19.3592 29.1249 18.5434C28.3091 17.7276 27.2697 17.172 26.1381 16.9469C25.0066 16.7218 23.8337 16.8374 22.7678 17.2789C21.7019 17.7204 20.7908 18.4681 20.1498 19.4273C19.5089 20.3866 19.1667 21.5145 19.1667 22.6682C19.1667 24.2153 19.7813 25.699 20.8753 26.793C21.9693 27.8869 23.453 28.5015 25.0001 28.5015ZM25.0001 18.5015C25.8242 18.5015 26.6298 18.7459 27.315 19.2037C28.0002 19.6616 28.5342 20.3123 28.8496 21.0737C29.1649 21.835 29.2475 22.6728 29.0867 23.4811C28.9259 24.2893 28.5291 25.0317 27.9464 25.6145C27.3636 26.1972 26.6212 26.594 25.813 26.7548C25.0047 26.9156 24.1669 26.833 23.4056 26.5177C22.6442 26.2023 21.9935 25.6683 21.5356 24.9831C21.0778 24.2978 20.8334 23.4923 20.8334 22.6682C20.8334 21.5631 21.2724 20.5033 22.0538 19.7219C22.8352 18.9405 23.895 18.5015 25.0001 18.5015V18.5015Z" fill="white"/>
<path d="M35.3917 34.9735C34.0553 33.561 32.4449 32.4359 30.6589 31.667C28.8728 30.898 26.9488 30.5015 25.0042 30.5015C23.0597 30.5015 21.1357 30.898 19.3496 31.667C17.5636 32.4359 15.9532 33.561 14.6167 34.9735C14.327 35.2829 14.1661 35.6912 14.1668 36.1151V40.4985C14.1668 40.9405 14.3423 41.3644 14.6549 41.677C14.9675 41.9895 15.3914 42.1651 15.8334 42.1651H34.1667C34.6088 42.1651 35.0327 41.9895 35.3453 41.677C35.6578 41.3644 35.8334 40.9405 35.8334 40.4985V36.1151C35.8363 35.6923 35.6785 35.2842 35.3917 34.9735V34.9735ZM34.1667 40.4985H15.8334V36.1068C17.0144 34.8632 18.4362 33.8729 20.012 33.1962C21.5879 32.5195 23.285 32.1705 25.0001 32.1705C26.7151 32.1705 28.4122 32.5195 29.9881 33.1962C31.564 33.8729 32.9857 34.8632 34.1667 36.1068V40.4985Z" fill="white"/>
</svg>
